<svg class="main-svg" xmlns="http://www.w3.org/2000/svg" width="1000"
     height="400" style="" viewBox="0 0 1000 400">
    <rect x="0" y="0" width="1000" height="400" style="fill: rgb(255, 255, 255); fill-opacity: 1;"/>
    <defs id="defs-ceb7a0">
        <g class="clips">
            <clipPath id="clipceb7a0xyplot" class="plotclip">
                <rect width="939" height="257"/>
            </clipPath>
            <clipPath class="axesclip" id="clipceb7a0x">
                <rect x="56" y="0" width="939" height="400"/>
            </clipPath>
            <clipPath class="axesclip" id="clipceb7a0y">
                <rect x="0" y="90" width="1000" height="257"/>
            </clipPath>
            <clipPath class="axesclip" id="clipceb7a0xy">
                <rect x="56" y="90" width="939" height="257"/>
            </clipPath>
        </g>
        <g class="gradients"/>
    </defs>
    <g class="bglayer"/>
    <g class="layer-below">
        <g class="imagelayer"/>
        <g class="shapelayer"/>
    </g>
    <g class="cartesianlayer">
        <g class="subplot xy">
            <g class="layer-subplot">
                <g class="shapelayer"/>
                <g class="imagelayer"/>
            </g>
            <g class="gridlayer">
                <g class="x"/>
                <g class="y"/>
            </g>
            <g class="zerolinelayer"/>
            <path class="xlines-below"/>
            <path class="ylines-below"/>
            <g class="overlines-below"/>
            <g class="xaxislayer-below"/>
            <g class="yaxislayer-below"/>
            <g class="overaxes-below"/>
            <g class="plot" transform="translate(56, 90)" clip-path="url('#clipceb7a0xyplot')">
                <g class="scatterlayer mlayer">
                    <g class="trace scatter tracea5b8a9" style="stroke-miterlimit: 2; opacity: 1;">
                        <g class="fills"/>
                        <g class="errorbars"/>
                        <g class="lines">
                            <path class="js-line"
                                  d="M0,244.15L0.3,241.85L0.32,241.5L1.04,217.09L1.06,216.02L2,155.03L2.02,153.42L4.51,13.7L4.54,13.51L4.71,12.86L5,15.32L5.03,15.67L5.81,43.73L5.83,44.86L6.79,109.23L6.81,110.86L9.39,244.15L9.56,243.4L9.58,243.2L10.22,226.74L10.24,225.86L11.8,123.98L11.82,122.33L13.88,13.92L13.9,13.7L14.1,12.86L14.39,15.32L14.42,15.67L15.2,43.73L15.22,44.86L16.18,109.23L16.2,110.86L18.78,244.15L18.95,243.4L18.97,243.2L19.61,226.74L19.63,225.86L21.19,123.98L21.21,122.33L23.27,13.92L23.29,13.7L23.49,12.86L23.78,15.32L23.81,15.67L24.59,43.73L24.61,44.86L25.57,109.23L25.59,110.86L28.17,244.15L28.34,243.4L28.36,243.2L29,226.74L29.02,225.86L30.58,123.98L30.6,122.33L32.66,13.92L32.68,13.7L32.88,12.86L33.17,15.32L33.2,15.67L33.98,43.73L34,44.86L34.96,109.23L34.98,110.86L37.56,244.15L37.73,243.4L37.75,243.2L38.39,226.74L38.41,225.86L39.97,123.98L39.99,122.33L42.05,13.92L42.07,13.7L42.27,12.86L42.56,15.32L42.59,15.67L43.37,43.73L43.4,44.86L46.95,244.15L47.1,243.57L47.12,243.4L47.68,230.84L47.7,230.06L49.08,145.33L49.1,143.69L51.44,13.92L51.47,13.7L51.66,12.86L51.98,15.67L52,16.04L52.83,47.17L52.85,48.35L56.34,244.15L56.47,243.72L56.49,243.57L57,233.05L57.02,232.32L58.28,159.81L58.3,158.22L60.86,13.7L60.88,13.51L61.05,12.86L61.35,15.32L61.37,15.67L62.15,43.73L62.18,44.86L65.73,244.15L65.88,243.57L65.9,243.4L66.46,230.84L66.48,230.06L67.86,145.33L67.88,143.69L70.22,13.92L70.25,13.7L70.44,12.86L70.76,15.67L70.78,16.04L71.61,47.17L71.63,48.35L75.12,244.15L75.25,243.72L75.27,243.57L75.78,233.05L75.8,232.32L77.06,159.81L77.08,158.22L79.64,13.7L79.66,13.51L79.83,12.86L80.13,15.32L80.15,15.67L80.93,43.73L80.96,44.86L84.51,244.15L84.66,243.57L84.68,243.4L85.24,230.84L85.26,230.06L86.64,145.33L86.66,143.69L89,13.92L89.03,13.7L89.22,12.86L89.54,15.67L89.56,16.04L90.39,47.17L90.41,48.35L93.9,244.15L94.03,243.72L94.05,243.57L94.56,233.05L94.58,232.32L95.84,159.81L95.86,158.22L98.42,13.7L98.44,13.51L98.61,12.86L98.91,15.32L98.93,15.67L99.72,43.73L99.74,44.86L103.29,244.15L103.44,243.57L103.46,243.4L104.02,230.84L104.04,230.06L105.42,145.33L105.44,143.69L107.76,14.15L107.79,13.92L108,12.86L108.34,16.04L108.36,16.44L109.19,48.35L109.21,49.54L112.68,244.15L112.79,243.85L112.81,243.72L113.3,234.41L113.32,233.74L114.54,166.1L114.56,164.54L117.24,13.36L117.26,13.21L117.39,12.86L117.67,14.99L117.69,15.32L118.45,41.52L118.47,42.62L119.41,104.39L119.43,105.99L121.86,242.96L121.88,243.2L122.07,244.15L122.41,241.16L122.43,240.77L122.99,223.12L123.01,222.15L124.8,99.57L124.82,97.98L126.63,13.36L126.65,13.21L126.78,12.86L127.06,14.99L127.08,15.32L127.84,41.52L127.86,42.62L128.8,104.39L128.82,105.99L131.25,242.96L131.27,243.2L131.46,244.15L131.8,241.16L131.82,240.77L132.38,223.12L132.4,222.15L134.19,99.57L134.21,97.98L136.02,13.36L136.04,13.21L136.17,12.86L136.45,14.99L136.47,15.32L137.23,41.52L137.25,42.62L138.19,104.39L138.21,105.99L140.64,242.96L140.66,243.2L140.85,244.15L141.19,241.16L141.22,240.77L142.07,208.05L142.09,206.85L145.56,12.86L145.64,13.1L145.67,13.21L146.16,22.26L146.18,22.93L147.37,88.57L147.39,90.12L150.09,243.57L150.12,243.72L150.24,244.15L150.54,241.85L150.56,241.5L151.29,217.09L151.31,216.02L154.95,12.86L155.1,13.51L155.12,13.7L155.72,28.14L155.74,28.97L157.23,123.98L157.25,125.62L159.42,242.96L159.44,243.2L159.63,244.15L159.97,241.16L160,240.77L160.85,208.05L160.87,206.85L164.34,12.86L164.42,13.1L164.45,13.21L164.94,22.26L164.96,22.93L166.15,88.57L166.17,90.12L168.87,243.57L168.9,243.72L169.02,244.15L169.32,241.85L169.34,241.5L170.07,217.09L170.09,216.02L173.73,12.86L173.88,13.51L173.9,13.7L174.5,28.14L174.52,28.97L176.01,123.98L176.03,125.62L178.2,242.96L178.22,243.2L178.41,244.15L178.75,241.16L178.78,240.77L179.63,208.05L179.65,206.85L183.12,12.86L183.2,13.1L183.23,13.21L183.72,22.26L183.74,22.93L184.93,88.57L184.95,90.12L187.66,243.57L187.68,243.72L187.8,244.15L188.1,241.85L188.12,241.5L188.85,217.09L188.87,216.02L192.51,12.86L192.66,13.51L192.68,13.7L193.28,28.14L193.3,28.97L194.79,123.98L194.81,125.62L196.98,242.96L197,243.2L197.19,244.15L197.54,241.16L197.56,240.77L198.41,208.05L198.43,206.85L201.9,12.86L201.99,13.1L202.01,13.21L202.5,22.26L202.52,22.93L203.71,88.57L203.73,90.12L206.44,243.57L206.46,243.72L206.58,244.15L206.88,241.85L206.9,241.5L207.39,227.6L207.42,226.74L208.97,125.62L208.99,123.98L211.06,14.15L211.08,13.92L211.29,12.86L211.63,16.04L211.65,16.44L212.48,48.35L212.5,49.54L213.53,120.69L213.55,122.33L215.76,242.96L215.78,243.2L215.97,244.15L216.32,241.16L216.34,240.77L217.19,208.05L217.21,206.85L220.68,12.86L220.79,13.21L220.81,13.36L221.28,22.26L221.3,22.93L222.49,88.57L222.51,90.12L225.22,243.57L225.24,243.72L225.37,244.15L225.66,241.85L225.68,241.5L226.17,227.6L226.2,226.74L227.75,125.62L227.77,123.98L229.84,14.15L229.86,13.92L230.07,12.86L230.41,16.04L230.43,16.44L231.26,48.35L231.28,49.54L232.31,120.69L232.33,122.33L234.54,242.96L234.56,243.2L234.76,244.15L235.1,241.16L235.12,240.77L235.97,208.05L235.99,206.85L239.46,12.86L239.57,13.21L239.59,13.36L240.06,22.26L240.08,22.93L241.27,88.57L241.29,90.12L244,243.57L244.02,243.72L244.15,244.15L244.44,241.85L244.46,241.5L244.95,227.6L244.98,226.74L246.53,125.62L246.55,123.98L248.62,14.15L248.64,13.92L248.85,12.86L249.19,16.04L249.21,16.44L250.04,48.35L250.06,49.54L251.09,120.69L251.11,122.33L253.32,242.96L253.34,243.2L253.54,244.15L253.83,241.85L253.86,241.5L254.58,217.09L254.6,216.02L258.24,12.86L258.41,13.7L258.43,13.92L259.03,28.97L259.05,29.82L260.56,127.27L260.58,128.9L262.93,244.15L263.08,243.57L263.1,243.4L263.65,230.84L263.67,230.06L265.06,145.33L265.08,143.69L267.42,13.92L267.44,13.7L267.63,12.86L267.95,15.67L267.97,16.04L268.8,47.17L268.82,48.35L269.82,117.4L269.85,119.05L272.1,242.96L272.12,243.2L272.32,244.15L272.61,241.85L272.64,241.5L273.36,217.09L273.38,216.02L277.02,12.86L277.19,13.7L277.21,13.92L277.81,28.97L277.83,29.82L279.34,127.27L279.36,128.9L281.71,244.15L281.88,243.4L281.9,243.2L282.54,226.74L282.56,225.86L284.11,123.98L284.13,122.33L286.41,12.86L286.56,13.51L286.58,13.7L287.18,28.14L287.2,28.97L288.67,122.33L288.69,123.98L290.88,242.96L290.9,243.2L291.1,244.15L291.39,241.85L291.42,241.5L292.14,217.09L292.16,216.02L295.8,12.86L295.97,13.7L295.99,13.92L296.42,22.93L296.44,23.61L297.65,91.68L297.68,93.24L300.32,243.4L300.34,243.57L300.49,244.15L300.81,241.5L300.83,241.16L301.66,210.41L301.68,209.24L305.19,12.86L305.3,13.21L305.32,13.36L305.79,22.26L305.81,22.93L307,88.57L307.02,90.12L309.88,244.15L310.07,243.2L310.09,242.96L310.71,226.74L310.73,225.86L312.28,123.98L312.3,122.33L314.58,12.86L314.73,13.51L314.75,13.7L315.35,28.14L315.37,28.97L316.84,122.33L316.86,123.98L319.05,242.96L319.08,243.2L319.27,244.15L319.61,241.16L319.63,240.77L320.48,208.05L320.5,206.85L323.97,12.86L324.08,13.21L324.1,13.36L324.57,22.26L324.59,22.93L325.78,88.57L325.8,90.12L328.66,244.15L328.85,243.2L328.87,242.96L329.49,226.74L329.51,225.86L331.06,123.98L331.08,122.33L333.36,12.86L333.51,13.51L333.53,13.7L334.13,28.14L334.15,28.97L335.62,122.33L335.64,123.98L337.83,242.96L337.86,243.2L338.05,244.15L338.39,241.16L338.41,240.77L339.26,208.05L339.28,206.85L342.75,12.86L342.86,13.21L342.88,13.36L343.35,22.26L343.37,22.93L344.56,88.57L344.58,90.12L347.44,244.15L347.63,243.2L347.65,242.96L348.27,226.74L348.29,225.86L349.84,123.98L349.87,122.33L351.93,13.92L351.95,13.7L352.14,12.86L352.46,15.67L352.48,16.04L353.04,33.42L353.06,34.36L354.87,158.22L354.89,159.81L356.68,243.57L356.7,243.72L356.83,244.15L357.13,241.85L357.15,241.5L357.87,217.09L357.89,216.02L361.53,12.86L361.7,13.7L361.73,13.92L362.32,28.97L362.34,29.82L363.88,128.9L363.9,130.55L366.01,242.96L366.03,243.2L366.22,244.15L366.56,241.16L366.58,240.77L367.43,208.05L367.45,206.85L370.92,12.86L371.03,13.21L371.05,13.36L371.52,22.26L371.54,22.93L372.73,88.57L372.76,90.12L375.46,243.57L375.48,243.72L375.61,244.15L375.91,241.85L375.93,241.5L376.65,217.09L376.67,216.02L380.31,12.86L380.48,13.7L380.51,13.92L381.1,28.97L381.12,29.82L382.66,128.9L382.68,130.55L384.79,242.96L384.81,243.2L385,244.15L385.34,241.16L385.36,240.77L386.21,208.05L386.23,206.85L387.26,135.5L387.28,133.85L389.47,14.15L389.49,13.92L389.7,12.86L390.05,16.04L390.07,16.44L390.9,48.35L390.92,49.54L394.39,244.15L394.5,243.85L394.52,243.72L395.01,234.41L395.03,233.74L396.22,167.66L396.24,166.1L398.92,13.51L398.95,13.36L399.09,12.86L399.39,15.32L399.41,15.67L399.95,31.59L399.97,32.5L401.61,142.06L401.63,143.69L403.59,243.2L403.61,243.4L403.78,244.15L404.1,241.5L404.12,241.16L404.95,210.41L404.97,209.24L408.48,12.86L408.59,13.21L408.61,13.36L409.08,22.26L409.1,22.93L410.29,88.57L410.32,90.12L413.02,243.57L413.04,243.72L413.17,244.15L413.47,241.85L413.49,241.5L414.21,217.09L414.23,216.02L415.17,155.03L415.19,153.42L417.68,13.7L417.7,13.51L417.88,12.86L418.15,14.99L418.17,15.32L418.94,41.52L418.96,42.62L422.56,244.15L422.71,243.57L422.73,243.4L423.28,230.84L423.3,230.06L424.07,189.85L424.09,188.45L427.24,12.86L427.27,12.86L427.61,16.04L427.63,16.44L428.46,48.35L428.48,49.54L431.95,244.15L432.06,243.85L432.08,243.72L432.57,234.41L432.59,233.74L433.78,167.66L433.8,166.1L436.49,13.51L436.51,13.36L436.66,12.86L436.95,15.32L436.97,15.67L437.51,31.59L437.53,32.5L439.17,142.06L439.19,143.69L441.15,243.2L441.17,243.4L441.34,244.15L441.66,241.5L441.68,241.16L442.51,210.41L442.53,209.24L446.05,12.86L446.15,13.21L446.17,13.36L446.64,22.26L446.66,22.93L447.86,88.57L447.88,90.12L450.58,243.57L450.6,243.72L450.73,244.15L451.01,242.17L451.03,241.85L451.82,214.93L451.84,213.84L455.44,12.86L455.56,13.36L455.59,13.51L456.14,25.79L456.16,26.55L457.52,109.23L457.54,110.86L460.12,244.15L460.29,243.4L460.31,243.2L460.95,226.74L460.97,225.86L462.53,123.98L462.55,122.33L464.61,13.92L464.63,13.7L464.83,12.86L465.12,15.32L465.15,15.67L465.93,43.73L465.95,44.86L466.91,109.23L466.93,110.86L469.51,244.15L469.68,243.4L469.7,243.2L470.34,226.74L470.36,225.86L471.92,123.98L471.94,122.33L474,13.92L474.02,13.7L474.22,12.86L474.51,15.32L474.54,15.67L475.32,43.73L475.34,44.86L476.3,109.23L476.32,110.86L478.9,244.15L479.07,243.4L479.09,243.2L479.73,226.74L479.75,225.86L481.31,123.98L481.33,122.33L483.39,13.92L483.41,13.7L483.61,12.86L483.9,15.32L483.93,15.67L484.71,43.73L484.74,44.86L488.29,244.15L488.44,243.57L488.46,243.4L489.02,230.84L489.04,230.06L490.42,145.33L490.44,143.69L492.78,13.92L492.81,13.7L493,12.86L493.32,15.67L493.34,16.04L494.17,47.17L494.19,48.35L497.68,244.15L497.81,243.72L497.83,243.57L498.34,233.05L498.36,232.32L499.62,159.81L499.64,158.22L502.2,13.7L502.22,13.51L502.39,12.86L502.69,15.32L502.71,15.67L503.49,43.73L503.52,44.86L507.07,244.15L507.22,243.57L507.24,243.4L507.8,230.84L507.82,230.06L509.2,145.33L509.22,143.69L511.56,13.92L511.59,13.7L511.78,12.86L512.1,15.67L512.12,16.04L512.95,47.17L512.97,48.35L516.46,244.15L516.59,243.72L516.61,243.57L517.12,233.05L517.14,232.32L518.4,159.81L518.42,158.22L520.98,13.7L521,13.51L521.17,12.86L521.47,15.32L521.49,15.67L522.27,43.73L522.3,44.86L525.85,244.15L526,243.57L526.02,243.4L526.58,230.84L526.6,230.06L527.98,145.33L528,143.69L530.34,13.92L530.37,13.7L530.56,12.86L530.88,15.67L530.9,16.04L531.73,47.17L531.75,48.35L535.24,244.15L535.37,243.72L535.39,243.57L535.9,233.05L535.92,232.32L537.18,159.81L537.2,158.22L539.76,13.7L539.78,13.51L539.95,12.86L540.25,15.32L540.27,15.67L541.06,43.73L541.08,44.86L544.63,244.15L544.78,243.57L544.8,243.4L545.36,230.84L545.38,230.06L546.76,145.33L546.78,143.69L549.1,14.15L549.13,13.92L549.34,12.86L549.68,16.04L549.7,16.44L550.53,48.35L550.55,49.54L554.02,244.15L554.13,243.85L554.15,243.72L554.64,234.41L554.66,233.74L555.88,166.1L555.9,164.54L558.58,13.36L558.6,13.21L558.73,12.86L559.01,14.99L559.03,15.32L559.79,41.52L559.81,42.62L560.75,104.39L560.77,105.99L563.2,242.96L563.22,243.2L563.41,244.15L563.75,241.16L563.77,240.77L564.33,223.12L564.35,222.15L566.14,99.57L566.16,97.98L567.97,13.36L567.99,13.21L568.12,12.86L568.4,14.99L568.42,15.32L569.18,41.52L569.2,42.62L570.14,104.39L570.16,105.99L572.59,242.96L572.61,243.2L572.8,244.15L573.14,241.16L573.16,240.77L573.72,223.12L573.74,222.15L575.53,99.57L575.55,97.98L577.36,13.36L577.38,13.21L577.51,12.86L577.79,14.99L577.81,15.32L578.57,41.52L578.59,42.62L579.53,104.39L579.55,105.99L581.98,242.96L582,243.2L582.19,244.15L582.53,241.16L582.56,240.77L583.41,208.05L583.43,206.85L586.9,12.86L586.98,13.1L587.01,13.21L587.5,22.26L587.52,22.93L588.71,88.57L588.73,90.12L591.43,243.57L591.46,243.72L591.58,244.15L591.88,241.85L591.9,241.5L592.63,217.09L592.65,216.02L596.29,12.86L596.44,13.51L596.46,13.7L597.06,28.14L597.08,28.97L598.57,123.98L598.59,125.62L600.76,242.96L600.78,243.2L600.97,244.15L601.31,241.16L601.34,240.77L602.19,208.05L602.21,206.85L605.68,12.86L605.76,13.1L605.79,13.21L606.28,22.26L606.3,22.93L607.49,88.57L607.51,90.12L610.21,243.57L610.24,243.72L610.36,244.15L610.66,241.85L610.68,241.5L611.41,217.09L611.43,216.02L615.07,12.86L615.22,13.51L615.24,13.7L615.84,28.14L615.86,28.97L617.35,123.98L617.37,125.62L619.54,242.96L619.56,243.2L619.75,244.15L620.09,241.16L620.12,240.77L620.97,208.05L620.99,206.85L624.46,12.86L624.54,13.1L624.57,13.21L625.06,22.26L625.08,22.93L626.27,88.57L626.29,90.12L629,243.57L629.02,243.72L629.14,244.15L629.44,241.85L629.46,241.5L630.19,217.09L630.21,216.02L633.85,12.86L634,13.51L634.02,13.7L634.62,28.14L634.64,28.97L636.13,123.98L636.15,125.62L638.32,242.96L638.34,243.2L638.53,244.15L638.88,241.16L638.9,240.77L639.75,208.05L639.77,206.85L643.24,12.86L643.33,13.1L643.35,13.21L643.84,22.26L643.86,22.93L645.05,88.57L645.07,90.12L647.78,243.57L647.8,243.72L647.92,244.15L648.22,241.85L648.24,241.5L648.73,227.6L648.76,226.74L650.31,125.62L650.33,123.98L652.4,14.15L652.42,13.92L652.63,12.86L652.97,16.04L652.99,16.44L653.82,48.35L653.84,49.54L654.87,120.69L654.89,122.33L657.1,242.96L657.12,243.2L657.31,244.15L657.66,241.16L657.68,240.77L658.53,208.05L658.55,206.85L662.02,12.86L662.13,13.21L662.15,13.36L662.62,22.26L662.64,22.93L663.83,88.57L663.85,90.12L666.56,243.57L666.58,243.72L666.71,244.15L667,241.85L667.02,241.5L667.51,227.6L667.54,226.74L669.09,125.62L669.11,123.98L671.18,14.15L671.2,13.92L671.41,12.86L671.75,16.04L671.77,16.44L672.6,48.35L672.62,49.54L673.65,120.69L673.67,122.33L675.88,242.96L675.9,243.2L676.1,244.15L676.44,241.16L676.46,240.77L677.31,208.05L677.33,206.85L680.8,12.86L680.91,13.21L680.93,13.36L681.4,22.26L681.42,22.93L682.61,88.57L682.63,90.12L685.34,243.57L685.36,243.72L685.49,244.15L685.78,241.85L685.8,241.5L686.29,227.6L686.32,226.74L687.87,125.62L687.89,123.98L689.96,14.15L689.98,13.92L690.19,12.86L690.53,16.04L690.55,16.44L691.38,48.35L691.4,49.54L692.43,120.69L692.45,122.33L694.66,242.96L694.68,243.2L694.88,244.15L695.17,241.85L695.2,241.5L695.92,217.09L695.94,216.02L699.58,12.86L699.75,13.7L699.77,13.92L700.37,28.97L700.39,29.82L701.9,127.27L701.92,128.9L704.27,244.15L704.42,243.57L704.44,243.4L704.99,230.84L705.01,230.06L706.4,145.33L706.42,143.69L708.76,13.92L708.78,13.7L708.97,12.86L709.29,15.67L709.31,16.04L710.14,47.17L710.16,48.35L711.16,117.4L711.19,119.05L713.44,242.96L713.46,243.2L713.66,244.15L713.95,241.85L713.98,241.5L714.7,217.09L714.72,216.02L718.36,12.86L718.53,13.7L718.55,13.92L719.15,28.97L719.17,29.82L720.68,127.27L720.7,128.9L723.05,244.15L723.22,243.4L723.24,243.2L723.88,226.74L723.9,225.86L725.45,123.98L725.47,122.33L727.75,12.86L727.9,13.51L727.92,13.7L728.52,28.14L728.54,28.97L730.01,122.33L730.03,123.98L732.22,242.96L732.24,243.2L732.44,244.15L732.73,241.85L732.76,241.5L733.48,217.09L733.5,216.02L737.14,12.86L737.31,13.7L737.33,13.92L737.76,22.93L737.78,23.61L738.99,91.68L739.02,93.24L741.66,243.4L741.68,243.57L741.83,244.15L742.15,241.5L742.17,241.16L743,210.41L743.02,209.24L746.53,12.86L746.64,13.21L746.66,13.36L747.13,22.26L747.15,22.93L748.34,88.57L748.36,90.12L751.22,244.15L751.41,243.2L751.43,242.96L752.05,226.74L752.07,225.86L753.62,123.98L753.64,122.33L755.92,12.86L756.07,13.51L756.09,13.7L756.69,28.14L756.71,28.97L758.18,122.33L758.2,123.98L760.39,242.96L760.42,243.2L760.61,244.15L760.95,241.16L760.97,240.77L761.82,208.05L761.84,206.85L765.31,12.86L765.42,13.21L765.44,13.36L765.91,22.26L765.93,22.93L767.12,88.57L767.14,90.12L770,244.15L770.19,243.2L770.21,242.96L770.83,226.74L770.85,225.86L772.4,123.98L772.42,122.33L774.7,12.86L774.85,13.51L774.87,13.7L775.47,28.14L775.49,28.97L776.96,122.33L776.98,123.98L779.17,242.96L779.2,243.2L779.39,244.15L779.73,241.16L779.75,240.77L780.6,208.05L780.62,206.85L784.09,12.86L784.2,13.21L784.22,13.36L784.69,22.26L784.71,22.93L785.9,88.57L785.92,90.12L788.78,244.15L788.97,243.2L788.99,242.96L789.61,226.74L789.63,225.86L791.18,123.98L791.21,122.33L793.27,13.92L793.29,13.7L793.48,12.86L793.8,15.67L793.82,16.04L794.38,33.42L794.4,34.36L796.21,158.22L796.23,159.81L798.02,243.57L798.04,243.72L798.17,244.15L798.47,241.85L798.49,241.5L799.21,217.09L799.23,216.02L802.87,12.86L803.04,13.7L803.07,13.92L803.66,28.97L803.68,29.82L805.22,128.9L805.24,130.55L807.35,242.96L807.37,243.2L807.56,244.15L807.9,241.16L807.92,240.77L808.77,208.05L808.79,206.85L812.26,12.86L812.37,13.21L812.39,13.36L812.86,22.26L812.88,22.93L814.07,88.57L814.1,90.12L816.8,243.57L816.82,243.72L816.95,244.15L817.25,241.85L817.27,241.5L817.99,217.09L818.01,216.02L821.65,12.86L821.82,13.7L821.85,13.92L822.44,28.97L822.46,29.82L824,128.9L824.02,130.55L826.13,242.96L826.15,243.2L826.34,244.15L826.68,241.16L826.7,240.77L827.55,208.05L827.57,206.85L828.6,135.5L828.62,133.85L830.81,14.15L830.83,13.92L831.04,12.86L831.39,16.04L831.41,16.44L832.24,48.35L832.26,49.54L835.73,244.15L835.84,243.85L835.86,243.72L836.35,234.41L836.37,233.74L837.56,167.66L837.58,166.1L840.26,13.51L840.29,13.36L840.43,12.86L840.73,15.32L840.75,15.67L841.29,31.59L841.31,32.5L842.95,142.06L842.97,143.69L844.93,243.2L844.95,243.4L845.12,244.15L845.44,241.5L845.46,241.16L846.29,210.41L846.31,209.24L849.82,12.86L849.93,13.21L849.95,13.36L850.42,22.26L850.44,22.93L851.63,88.57L851.66,90.12L854.36,243.57L854.38,243.72L854.51,244.15L854.81,241.85L854.83,241.5L855.55,217.09L855.57,216.02L856.51,155.03L856.53,153.42L859.02,13.7L859.04,13.51L859.22,12.86L859.49,14.99L859.51,15.32L860.28,41.52L860.3,42.62L863.9,244.15L864.05,243.57L864.07,243.4L864.62,230.84L864.64,230.06L865.41,189.85L865.43,188.45L868.58,12.86L868.61,12.86L868.95,16.04L868.97,16.44L869.8,48.35L869.82,49.54L873.29,244.15L873.4,243.85L873.42,243.72L873.91,234.41L873.93,233.74L875.12,167.66L875.14,166.1L877.83,13.51L877.85,13.36L878,12.86L878.29,15.32L878.31,15.67L878.85,31.59L878.87,32.5L880.51,142.06L880.53,143.69L882.49,243.2L882.51,243.4L882.68,244.15L883,241.5L883.02,241.16L883.85,210.41L883.87,209.24L887.39,12.86L887.49,13.21L887.51,13.36L887.98,22.26L888,22.93L889.2,88.57L889.22,90.12L891.92,243.57L891.94,243.72L892.07,244.15L892.35,242.17L892.37,241.85L893.16,214.93L893.18,213.84L896.78,12.86L896.9,13.36L896.93,13.51L897.48,25.79L897.5,26.55L898.86,109.23L898.88,110.86L901.46,244.15L901.63,243.4L901.65,243.2L902.29,226.74L902.31,225.86L903.87,123.98L903.89,122.33L905.95,13.92L905.97,13.7L906.17,12.86L906.46,15.32L906.49,15.67L907.27,43.73L907.29,44.86L908.25,109.23L908.27,110.86L910.85,244.15L911.02,243.4L911.04,243.2L911.68,226.74L911.7,225.86L913.26,123.98L913.28,122.33L915.34,13.92L915.36,13.7L915.56,12.86L915.85,15.32L915.88,15.67L916.66,43.73L916.68,44.86L917.64,109.23L917.66,110.86L920.24,244.15L920.41,243.4L920.43,243.2L921.07,226.74L921.09,225.86L922.65,123.98L922.67,122.33L924.73,13.92L924.75,13.7L924.95,12.86L925.24,15.32L925.27,15.67L926.05,43.73L926.08,44.86L929.63,244.15L929.78,243.57L929.8,243.4L930.36,230.84L930.38,230.06L931.76,145.33L931.78,143.69L934.12,13.92L934.15,13.7L934.34,12.86L934.66,15.67L934.68,16.04L935.51,47.17L935.53,48.35L939,244.14"
                                  style="vector-effect: non-scaling-stroke; fill: none; stroke: rgb(132, 180, 196); stroke-opacity: 1; stroke-width: 1px; opacity: 1;"/>
                        </g>
                        <g class="points"/>
                        <g class="text"/>
                    </g>
                    <g class="trace scatter tracef3a1ac" style="stroke-miterlimit: 2; opacity: 1;">
                        <g class="fills"/>
                        <g class="errorbars"/>
                        <g class="lines">
                            <path class="js-line"
                                  d="M0,157.42L0.45,156.13L0.47,156.01L1.49,144.19L1.51,143.84L4.68,99.59L4.71,99.59L5.17,101.06L5.2,101.19L6.24,113.69L6.26,114.05L9.39,157.41L9.41,157.41L9.86,156L9.88,155.87L10.92,143.49L10.94,143.13L12.2,119.69L12.22,119.29L13.97,99.68L13.99,99.65L14.42,100.29L14.44,100.39L15.29,108.46L15.31,108.76L18.8,157.41L18.89,157.34L18.91,157.3L19.48,154.27L19.5,154.08L20.25,144.53L20.27,144.19L23.46,99.59L23.49,99.59L23.95,101.06L23.98,101.2L25.02,113.69L25.04,114.05L28.13,157.4L28.15,157.41L28.6,156.25L28.62,156.13L29.62,144.87L29.64,144.53L32.88,99.59L32.9,99.59L33.39,101.33L33.41,101.48L34.49,115.13L34.52,115.5L37.5,157.38L37.52,157.4L37.94,156.47L37.97,156.36L38.88,146.84L38.9,146.52L42.29,99.59L42.33,99.62L42.35,99.65L42.86,101.94L42.88,102.11L43.59,110.31L43.61,110.64L46.97,157.41L47.01,157.38L47.04,157.37L47.59,154.81L47.61,154.64L48.87,136.73L48.89,136.33L51.44,99.85L51.47,99.8L51.68,99.59L52,100.39L52.02,100.48L52.91,109.37L52.93,109.68L54.04,129.43L54.06,129.84L56.13,157.12L56.15,157.17L56.36,157.41L56.68,156.66L56.7,156.57L57.41,150.38L57.43,150.11L61.07,99.59L61.2,99.75L61.22,99.8L61.88,104.05L61.9,104.27L63.56,131.89L63.58,132.3L65.54,157.17L65.56,157.22L65.77,157.4L66.07,156.66L66.09,156.57L66.8,150.38L66.82,150.11L70.46,99.59L70.59,99.75L70.61,99.8L71.27,104.05L71.29,104.27L72.95,131.89L72.97,132.3L74.93,157.17L74.95,157.22L75.16,157.4L75.46,156.66L75.48,156.57L76.19,150.38L76.21,150.11L79.85,99.59L79.98,99.75L80,99.8L80.66,104.05L80.68,104.27L82.34,131.89L82.36,132.3L84.32,157.17L84.34,157.22L84.55,157.4L84.85,156.66L84.87,156.57L85.58,150.38L85.6,150.11L89.24,99.59L89.37,99.75L89.39,99.8L90.05,104.05L90.07,104.27L91.73,131.89L91.75,132.3L93.71,157.17L93.73,157.22L93.94,157.4L94.24,156.66L94.26,156.57L94.97,150.38L94.99,150.11L98.63,99.59L98.76,99.75L98.78,99.8L99.44,104.05L99.46,104.27L101.12,131.89L101.14,132.3L103.1,157.17L103.12,157.22L103.33,157.4L103.63,156.66L103.65,156.57L104.36,150.38L104.38,150.11L108.02,99.59L108.15,99.75L108.17,99.8L108.83,104.05L108.85,104.27L110.51,131.89L110.53,132.3L112.49,157.17L112.51,157.22L112.73,157.4L113.02,156.66L113.04,156.57L113.75,150.38L113.77,150.11L117.41,99.59L117.54,99.75L117.56,99.8L118.22,104.05L118.24,104.27L119.9,131.89L119.92,132.3L121.88,157.17L121.9,157.22L122.12,157.4L122.41,156.66L122.43,156.57L123.14,150.38L123.16,150.11L126.8,99.59L126.93,99.75L126.95,99.8L127.61,104.05L127.63,104.27L129.29,131.89L129.31,132.3L131.27,157.17L131.29,157.22L131.51,157.4L131.8,156.66L131.82,156.57L132.53,150.38L132.55,150.11L136.19,99.59L136.32,99.75L136.34,99.8L137,104.05L137.02,104.27L138.68,131.89L138.7,132.3L140.66,157.17L140.68,157.22L140.9,157.4L141.19,156.66L141.22,156.57L142.09,148.09L142.11,147.78L145.58,99.59L145.64,99.65L145.67,99.68L146.24,102.63L146.26,102.82L147.56,122.07L147.58,122.47L150.05,157.17L150.07,157.22L150.29,157.4L150.58,156.66L150.61,156.57L151.48,148.09L151.5,147.78L154.97,99.59L155.03,99.65L155.06,99.68L155.63,102.63L155.65,102.82L156.95,122.07L156.97,122.47L159.44,157.17L159.46,157.22L159.68,157.4L159.97,156.66L160,156.57L160.87,148.09L160.89,147.78L164.36,99.59L164.42,99.65L164.45,99.68L165.02,102.63L165.04,102.82L166.34,122.07L166.36,122.47L168.83,157.17L168.85,157.22L169.07,157.4L169.36,156.66L169.39,156.57L170.26,148.09L170.28,147.78L173.75,99.59L173.81,99.65L173.84,99.68L174.41,102.63L174.43,102.82L175.73,122.07L175.75,122.47L178.22,157.17L178.24,157.22L178.46,157.4L178.75,156.66L178.78,156.57L179.65,148.09L179.67,147.78L183.14,99.59L183.2,99.65L183.23,99.68L183.8,102.63L183.82,102.82L185.12,122.07L185.14,122.47L187.61,157.17L187.63,157.22L187.85,157.4L188.14,156.66L188.17,156.57L189.04,148.09L189.06,147.78L192.53,99.59L192.6,99.65L192.62,99.68L193.19,102.63L193.21,102.82L194.51,122.07L194.53,122.47L197,157.17L197.02,157.22L197.24,157.4L197.54,156.66L197.56,156.57L198.43,148.09L198.45,147.78L201.92,99.59L201.99,99.65L202.01,99.68L202.58,102.63L202.6,102.82L203.9,122.07L203.92,122.47L206.39,157.17L206.41,157.22L206.63,157.4L206.93,156.66L206.95,156.57L207.82,148.09L207.84,147.78L211.31,99.59L211.38,99.65L211.4,99.68L211.97,102.63L211.99,102.82L213.29,122.07L213.31,122.47L215.78,157.17L215.8,157.22L216.02,157.4L216.32,156.66L216.34,156.57L217.21,148.09L217.23,147.78L220.7,99.59L220.77,99.65L220.79,99.68L221.36,102.63L221.38,102.82L222.68,122.07L222.7,122.47L225.17,157.17L225.19,157.22L225.41,157.4L225.71,156.66L225.73,156.57L226.6,148.09L226.62,147.78L230.09,99.59L230.16,99.65L230.18,99.68L230.75,102.63L230.77,102.82L232.07,122.07L232.09,122.47L234.56,157.17L234.58,157.22L234.8,157.4L235.1,156.66L235.12,156.57L235.99,148.09L236.01,147.78L239.48,99.59L239.55,99.65L239.57,99.68L240.14,102.63L240.16,102.82L240.91,112.3L240.93,112.64L244.15,157.41L244.17,157.41L244.66,155.74L244.68,155.59L245.74,142.42L245.76,142.05L247.13,116.61L247.15,116.24L248.79,99.61L248.81,99.59L249.26,100.7L249.28,100.81L250.26,111.63L250.28,111.96L253.56,157.41L253.58,157.4L254.07,155.59L254.09,155.45L255.18,141.69L255.2,141.32L258.16,99.62L258.18,99.61L258.6,100.48L258.62,100.59L259.33,107.03L259.35,107.31L262.95,157.41L263.08,157.27L263.1,157.22L263.74,153.27L263.76,153.06L265.31,127.78L265.33,127.37L267.42,99.85L267.44,99.8L267.65,99.59L267.95,100.29L267.97,100.39L268.8,108.17L268.82,108.46L269.85,126.14L269.87,126.55L272.1,157.12L272.12,157.17L272.36,157.4L272.66,156.66L272.68,156.57L273.55,148.09L273.57,147.78L277.04,99.59L277.11,99.65L277.13,99.68L277.7,102.63L277.72,102.82L278.47,112.3L278.49,112.64L281.71,157.41L281.73,157.41L282.2,155.87L282.22,155.74L283.35,141.69L283.37,141.32L286.33,99.62L286.35,99.61L286.77,100.48L286.8,100.59L287.67,109.37L287.69,109.68L291.12,157.41L291.16,157.38L291.18,157.37L291.69,155.14L291.71,154.98L292.42,146.84L292.44,146.52L295.82,99.59L295.87,99.62L295.89,99.65L296.42,102.11L296.44,102.28L297.61,118.52L297.63,118.9L300.34,157.27L300.36,157.3L300.57,157.37L300.81,156.75L300.83,156.66L301.64,149.27L301.66,148.98L305.21,99.59L305.3,99.68L305.32,99.71L305.9,102.82L305.92,103.01L307.32,124.5L307.34,124.91L309.66,157.12L309.69,157.17L309.9,157.41L310.22,156.66L310.24,156.57L311.11,148.09L311.13,147.78L314.6,99.59L314.67,99.65L314.69,99.68L315.26,102.63L315.29,102.82L316.61,122.47L316.63,122.87L319.05,157.12L319.08,157.17L319.29,157.41L319.61,156.66L319.63,156.57L320.5,148.09L320.52,147.78L323.99,99.59L324.06,99.65L324.08,99.68L324.65,102.63L324.68,102.82L326,122.47L326.02,122.87L328.44,157.12L328.47,157.17L328.68,157.41L329,156.66L329.02,156.57L329.89,148.09L329.91,147.78L330.98,129.01L331,128.6L333.15,99.85L333.17,99.8L333.38,99.59L333.68,100.29L333.7,100.39L334.39,106.22L334.41,106.49L336.56,144.19L336.58,144.53L338.07,157.41L338.09,157.4L338.56,155.74L338.58,155.59L339.62,142.78L339.64,142.42L341.16,114.41L341.18,114.05L342.73,99.59L342.75,99.59L343.2,100.94L343.22,101.06L344.24,112.99L344.27,113.34L347.44,157.41L347.46,157.41L347.91,156L347.93,155.87L348.97,143.49L348.99,143.13L352.12,99.59L352.14,99.59L352.59,100.94L352.61,101.06L353.63,112.99L353.66,113.34L356.83,157.41L356.85,157.41L357.3,156L357.32,155.87L358.36,143.49L358.38,143.13L361.51,99.59L361.53,99.59L361.98,100.94L362,101.06L363.02,112.99L363.05,113.34L366.22,157.41L366.24,157.41L366.69,156L366.71,155.87L367.75,143.49L367.77,143.13L370.9,99.59L370.92,99.59L371.37,100.94L371.39,101.06L372.18,109.37L372.2,109.68L375.63,157.41L375.69,157.37L375.71,157.34L376.25,154.81L376.27,154.64L377.52,136.73L377.55,136.33L380.12,99.8L380.14,99.75L380.34,99.59L380.63,100.29L380.65,100.39L381.34,106.22L381.36,106.49L383.51,144.19L383.53,144.53L385.02,157.41L385.04,157.4L385.51,155.74L385.53,155.59L386.6,142.42L386.62,142.05L389.66,99.59L389.68,99.59L390.13,100.81L390.15,100.94L391.15,112.3L391.17,112.64L394.39,157.41L394.41,157.41L394.86,156L394.88,155.87L395.92,143.49L395.94,143.13L399.09,99.59L399.12,99.59L399.61,101.33L399.63,101.48L400.71,115.13L400.73,115.5L402.25,143.49L402.27,143.84L403.78,157.41L403.8,157.41L404.25,156L404.27,155.87L405.31,143.49L405.33,143.13L408.48,99.59L408.51,99.59L409,101.33L409.02,101.48L410.1,115.13L410.12,115.5L411.64,143.49L411.66,143.84L413.17,157.41L413.19,157.41L413.64,156L413.66,155.87L414.7,143.49L414.72,143.13L415.98,119.69L416,119.29L417.75,99.68L417.77,99.65L418.15,100.12L418.19,100.29L418.22,100.39L419.07,108.46L419.09,108.76L422.58,157.41L422.67,157.34L422.69,157.3L423.26,154.27L423.28,154.08L424.58,134.73L424.6,134.33L427.29,99.59L427.41,99.75L427.44,99.8L428.1,104.05L428.12,104.27L429.78,131.89L429.8,132.3L431.76,157.17L431.78,157.22L431.99,157.4L432.29,156.66L432.31,156.57L433.18,148.09L433.21,147.78L436.68,99.59L436.74,99.65L436.76,99.68L437.29,102.28L437.32,102.45L438.57,120.47L438.59,120.87L441.15,157.17L441.17,157.22L441.38,157.4L441.68,156.66L441.7,156.57L442.58,148.09L442.6,147.78L446.07,99.59L446.13,99.65L446.15,99.68L446.68,102.28L446.71,102.45L447.96,120.47L447.98,120.87L450.54,157.17L450.56,157.22L450.77,157.4L451.07,156.66L451.09,156.57L451.97,148.09L451.99,147.78L455.46,99.59L455.52,99.65L455.54,99.68L456.07,102.28L456.1,102.45L457.35,120.47L457.37,120.87L459.93,157.17L459.95,157.22L460.16,157.4L460.46,156.66L460.48,156.57L461.19,150.38L461.21,150.11L464.85,99.59L464.98,99.75L465,99.8L465.66,104.05L465.68,104.27L467.34,131.89L467.36,132.3L469.32,157.17L469.34,157.22L469.6,157.37L469.85,156.66L469.87,156.57L470.58,150.38L470.6,150.11L474.24,99.59L474.37,99.75L474.39,99.8L475.05,104.05L475.07,104.27L476.73,131.89L476.75,132.3L478.71,157.17L478.73,157.22L478.94,157.4L479.24,156.66L479.26,156.57L479.97,150.38L479.99,150.11L483.63,99.59L483.76,99.75L483.78,99.8L484.44,104.05L484.46,104.27L486.12,131.89L486.14,132.3L488.1,157.17L488.12,157.22L488.33,157.4L488.63,156.66L488.65,156.57L489.36,150.38L489.38,150.11L493.02,99.59L493.15,99.75L493.17,99.8L493.83,104.05L493.85,104.27L495.51,131.89L495.53,132.3L497.49,157.17L497.51,157.22L497.72,157.4L498.02,156.66L498.04,156.57L498.75,150.38L498.77,150.11L502.41,99.59L502.54,99.75L502.56,99.8L503.22,104.05L503.24,104.27L504.9,131.89L504.92,132.3L506.88,157.17L506.9,157.22L507.16,157.37L507.41,156.66L507.43,156.57L508.14,150.38L508.16,150.11L511.8,99.59L511.93,99.75L511.95,99.8L512.61,104.05L512.63,104.27L514.29,131.89L514.31,132.3L516.27,157.17L516.29,157.22L516.5,157.4L516.8,156.66L516.82,156.57L517.53,150.38L517.55,150.11L521.19,99.59L521.32,99.75L521.34,99.8L522,104.05L522.02,104.27L523.68,131.89L523.7,132.3L525.66,157.17L525.68,157.22L525.94,157.37L526.19,156.66L526.21,156.57L526.92,150.38L526.94,150.11L530.58,99.59L530.71,99.75L530.73,99.8L531.39,104.05L531.41,104.27L533.07,131.89L533.09,132.3L535.05,157.17L535.07,157.22L535.33,157.37L535.58,156.66L535.6,156.57L536.31,150.38L536.33,150.11L539.97,99.59L540.1,99.75L540.12,99.8L540.78,104.05L540.8,104.27L542.46,131.89L542.48,132.3L544.44,157.17L544.46,157.22L544.72,157.37L544.97,156.66L544.99,156.57L545.7,150.38L545.72,150.11L549.36,99.59L549.49,99.75L549.51,99.8L550.17,104.05L550.19,104.27L551.85,131.89L551.87,132.3L553.83,157.17L553.85,157.22L554.07,157.4L554.36,156.66L554.38,156.57L555.09,150.38L555.11,150.11L558.75,99.59L558.88,99.75L558.9,99.8L559.56,104.05L559.58,104.27L561.24,131.89L561.26,132.3L563.22,157.17L563.24,157.22L563.46,157.4L563.75,156.66L563.77,156.57L564.48,150.38L564.5,150.11L568.14,99.59L568.27,99.75L568.29,99.8L568.95,104.05L568.97,104.27L570.63,131.89L570.65,132.3L572.61,157.17L572.63,157.22L572.85,157.4L573.14,156.66L573.16,156.57L573.87,150.38L573.89,150.11L577.53,99.59L577.66,99.75L577.68,99.8L578.34,104.05L578.36,104.27L580.02,131.89L580.04,132.3L582,157.17L582.02,157.22L582.24,157.4L582.53,156.66L582.56,156.57L583.43,148.09L583.45,147.78L586.92,99.59L586.98,99.65L587.01,99.68L587.58,102.63L587.6,102.82L588.9,122.07L588.92,122.47L591.39,157.17L591.41,157.22L591.63,157.4L591.92,156.66L591.95,156.57L592.82,148.09L592.84,147.78L596.31,99.59L596.37,99.65L596.4,99.68L596.97,102.63L596.99,102.82L598.29,122.07L598.31,122.47L600.78,157.17L600.8,157.22L601.02,157.4L601.31,156.66L601.34,156.57L602.21,148.09L602.23,147.78L605.7,99.59L605.76,99.65L605.79,99.68L606.36,102.63L606.38,102.82L607.68,122.07L607.7,122.47L610.17,157.17L610.19,157.22L610.41,157.4L610.7,156.66L610.73,156.57L611.6,148.09L611.62,147.78L615.09,99.59L615.15,99.65L615.18,99.68L615.75,102.63L615.77,102.82L617.07,122.07L617.09,122.47L619.56,157.17L619.58,157.22L619.8,157.4L620.09,156.66L620.12,156.57L620.99,148.09L621.01,147.78L624.48,99.59L624.54,99.65L624.57,99.68L625.14,102.63L625.16,102.82L626.46,122.07L626.48,122.47L628.95,157.17L628.97,157.22L629.19,157.4L629.48,156.66L629.51,156.57L630.38,148.09L630.4,147.78L633.87,99.59L633.94,99.65L633.96,99.68L634.53,102.63L634.55,102.82L635.85,122.07L635.87,122.47L638.34,157.17L638.36,157.22L638.58,157.4L638.88,156.66L638.9,156.57L639.77,148.09L639.79,147.78L643.26,99.59L643.33,99.65L643.35,99.68L643.92,102.63L643.94,102.82L645.24,122.07L645.26,122.47L647.73,157.17L647.75,157.22L647.97,157.4L648.27,156.66L648.29,156.57L649.16,148.09L649.18,147.78L652.65,99.59L652.72,99.65L652.74,99.68L653.31,102.63L653.33,102.82L654.63,122.07L654.65,122.47L657.12,157.17L657.14,157.22L657.36,157.4L657.66,156.66L657.68,156.57L658.55,148.09L658.57,147.78L662.04,99.59L662.11,99.65L662.13,99.68L662.7,102.63L662.72,102.82L664.02,122.07L664.04,122.47L666.51,157.17L666.53,157.22L666.75,157.4L667.05,156.66L667.07,156.57L667.94,148.09L667.96,147.78L671.43,99.59L671.5,99.65L671.52,99.68L672.09,102.63L672.11,102.82L673.41,122.07L673.43,122.47L675.9,157.17L675.92,157.22L676.14,157.4L676.44,156.66L676.46,156.57L677.33,148.09L677.35,147.78L680.82,99.59L680.89,99.65L680.91,99.68L681.48,102.63L681.5,102.82L682.25,112.3L682.27,112.64L685.49,157.41L685.51,157.41L686,155.74L686.02,155.59L687.08,142.42L687.1,142.05L688.47,116.61L688.49,116.24L690.13,99.61L690.15,99.59L690.6,100.7L690.62,100.81L691.6,111.63L691.62,111.96L694.9,157.41L694.92,157.4L695.41,155.59L695.43,155.45L696.52,141.69L696.54,141.32L699.5,99.62L699.52,99.61L699.94,100.48L699.96,100.59L700.67,107.03L700.69,107.31L704.29,157.41L704.42,157.27L704.44,157.22L705.08,153.27L705.1,153.06L706.65,127.78L706.67,127.37L708.76,99.85L708.78,99.8L708.99,99.59L709.29,100.29L709.31,100.39L710.14,108.17L710.16,108.46L711.19,126.14L711.21,126.55L713.44,157.12L713.46,157.17L713.7,157.4L714,156.66L714.02,156.57L714.89,148.09L714.91,147.78L718.38,99.59L718.45,99.65L718.47,99.68L719.04,102.63L719.06,102.82L719.81,112.3L719.83,112.64L723.05,157.41L723.07,157.41L723.54,155.87L723.56,155.74L724.69,141.69L724.71,141.32L727.67,99.62L727.69,99.61L728.11,100.48L728.14,100.59L729.01,109.37L729.03,109.68L732.46,157.41L732.5,157.38L732.52,157.37L733.03,155.14L733.05,154.98L733.76,146.84L733.78,146.52L737.16,99.59L737.21,99.62L737.23,99.65L737.76,102.11L737.78,102.28L738.95,118.52L738.97,118.9L741.68,157.27L741.7,157.3L741.91,157.37L742.15,156.75L742.17,156.66L742.98,149.27L743,148.98L746.55,99.59L746.64,99.68L746.66,99.71L747.24,102.82L747.26,103.01L748.66,124.5L748.68,124.91L751,157.12L751.03,157.17L751.24,157.41L751.56,156.66L751.58,156.57L752.45,148.09L752.47,147.78L755.94,99.59L756.01,99.65L756.03,99.68L756.6,102.63L756.63,102.82L757.95,122.47L757.97,122.87L760.39,157.12L760.42,157.17L760.63,157.41L760.95,156.66L760.97,156.57L761.84,148.09L761.86,147.78L765.33,99.59L765.4,99.65L765.42,99.68L765.99,102.63L766.02,102.82L767.34,122.47L767.36,122.87L769.78,157.12L769.81,157.17L770.02,157.41L770.34,156.66L770.36,156.57L771.23,148.09L771.25,147.78L772.32,129.01L772.34,128.6L774.49,99.85L774.51,99.8L774.72,99.59L775.02,100.29L775.04,100.39L775.73,106.22L775.75,106.49L777.9,144.19L777.92,144.53L779.41,157.41L779.43,157.4L779.9,155.74L779.92,155.59L780.96,142.78L780.98,142.42L782.5,114.41L782.52,114.05L784.07,99.59L784.09,99.59L784.54,100.94L784.56,101.06L785.58,112.99L785.61,113.34L788.78,157.41L788.8,157.41L789.25,156L789.27,155.87L790.31,143.49L790.33,143.13L793.46,99.59L793.48,99.59L793.93,100.94L793.95,101.06L794.97,112.99L795,113.34L798.17,157.41L798.19,157.41L798.64,156L798.66,155.87L799.7,143.49L799.72,143.13L802.85,99.59L802.87,99.59L803.32,100.94L803.34,101.06L804.36,112.99L804.39,113.34L807.56,157.41L807.58,157.41L808.03,156L808.05,155.87L809.09,143.49L809.11,143.13L812.24,99.59L812.26,99.59L812.71,100.94L812.73,101.06L813.52,109.37L813.54,109.68L816.97,157.41L817.03,157.37L817.05,157.34L817.59,154.81L817.61,154.64L818.86,136.73L818.89,136.33L821.46,99.8L821.48,99.75L821.68,99.59L821.97,100.29L821.99,100.39L822.68,106.22L822.7,106.49L824.85,144.19L824.87,144.53L826.36,157.41L826.38,157.4L826.85,155.74L826.87,155.59L827.94,142.42L827.96,142.05L831,99.59L831.02,99.59L831.47,100.81L831.49,100.94L832.49,112.3L832.51,112.64L833.79,136.33L833.81,136.73L835.6,157.3L835.62,157.34L835.94,157.12L836.05,156.75L836.07,156.66L836.88,149.27L836.9,148.98L840.46,99.59L840.54,99.68L840.56,99.71L841.07,102.28L841.09,102.45L841.82,111.29L841.84,111.63L845.14,157.41L845.16,157.4L845.18,157.38L845.67,155.45L845.69,155.3L846.4,147.47L846.42,147.16L849.85,99.59L849.89,99.62L849.91,99.65L850.42,101.94L850.44,102.11L851.63,118.52L851.66,118.9L854.36,157.27L854.38,157.3L854.59,157.37L854.83,156.75L854.85,156.66L855.66,149.27L855.68,148.98L859.24,99.59L859.32,99.68L859.34,99.71L859.88,102.45L859.9,102.63L861.24,122.47L861.26,122.87L863.67,157.05L863.69,157.12L863.92,157.41L864.26,156.57L864.28,156.47L864.99,150.11L865.01,149.83L868.63,99.59L868.75,99.75L868.78,99.8L869.44,104.05L869.46,104.27L871.12,131.89L871.14,132.3L873.1,157.17L873.12,157.22L873.33,157.4L873.63,156.66L873.65,156.57L874.52,148.09L874.55,147.78L878.02,99.59L878.08,99.65L878.1,99.68L878.63,102.28L878.66,102.45L879.91,120.47L879.93,120.87L882.49,157.17L882.51,157.22L882.72,157.4L883.02,156.66L883.04,156.57L883.92,148.09L883.94,147.78L887.41,99.59L887.47,99.65L887.49,99.68L888.02,102.28L888.05,102.45L889.3,120.47L889.32,120.87L891.88,157.17L891.9,157.22L892.11,157.4L892.41,156.66L892.43,156.57L893.31,148.09L893.33,147.78L896.8,99.59L896.86,99.65L896.88,99.68L897.41,102.28L897.44,102.45L898.69,120.47L898.71,120.87L901.27,157.17L901.29,157.22L901.5,157.4L901.8,156.66L901.82,156.57L902.53,150.38L902.55,150.11L906.19,99.59L906.32,99.75L906.34,99.8L907,104.05L907.02,104.27L908.68,131.89L908.7,132.3L910.66,157.17L910.68,157.22L910.94,157.37L911.19,156.66L911.21,156.57L911.92,150.38L911.94,150.11L915.58,99.59L915.71,99.75L915.73,99.8L916.39,104.05L916.41,104.27L918.07,131.89L918.09,132.3L920.05,157.17L920.07,157.22L920.33,157.37L920.58,156.66L920.6,156.57L921.31,150.38L921.33,150.11L924.97,99.59L925.1,99.75L925.12,99.8L925.78,104.05L925.8,104.27L927.46,131.89L927.48,132.3L929.44,157.17L929.46,157.22L929.72,157.37L929.97,156.66L929.99,156.57L930.7,150.38L930.72,150.11L934.36,99.59L934.49,99.75L934.51,99.8L935.15,103.83L935.17,104.04L936.85,131.89L936.87,132.3L938.83,157.18L938.85,157.23L939,157.42"
                                  style="vector-effect: non-scaling-stroke; fill: none; stroke: rgb(0, 0, 0); stroke-opacity: 0.6; stroke-width: 1px; opacity: 1;"/>
                        </g>
                        <g class="points"/>
                        <g class="text"/>
                    </g>
                    <g class="trace scatter trace91c83c" style="stroke-miterlimit: 2; opacity: 1;">
                        <g class="fills"/>
                        <g class="errorbars"/>
                        <g class="lines">
                            <path class="js-line" d="M0,12.88L939,12.88"
                                  style="vector-effect: non-scaling-stroke; fill: none; stroke: rgb(0, 0, 255); stroke-opacity: 1; stroke-width: 2px; opacity: 1;"/>
                        </g>
                        <g class="points"/>
                        <g class="text"/>
                    </g>
                </g>
            </g>
            <g class="overplot"/>
            <path class="xlines-above crisp" d=""
                  style="fill: none; stroke-width: 1px; stroke: rgb(0, 0, 0); stroke-opacity: 0;"/>
            <path class="ylines-above crisp" d=""
                  style="fill: none; stroke-width: 1px; stroke: rgb(0, 0, 0); stroke-opacity: 0;"/>
            <g class="overlines-above"/>
            <g class="xaxislayer-above">
                <path class="xtick ticks crisp" d="M0,348v5" transform="translate(56,0)"
                      style="stroke: rgb(68, 68, 68); stroke-opacity: 1; stroke-width: 1px;"/>
                <path class="xtick ticks crisp" d="M0,348v5" transform="translate(162.45999999999998,0)"
                      style="stroke: rgb(68, 68, 68); stroke-opacity: 1; stroke-width: 1px;"/>
                <path class="xtick ticks crisp" d="M0,348v5" transform="translate(268.93,0)"
                      style="stroke: rgb(68, 68, 68); stroke-opacity: 1; stroke-width: 1px;"/>
                <path class="xtick ticks crisp" d="M0,348v5" transform="translate(375.39,0)"
                      style="stroke: rgb(68, 68, 68); stroke-opacity: 1; stroke-width: 1px;"/>
                <path class="xtick ticks crisp" d="M0,348v5" transform="translate(481.86,0)"
                      style="stroke: rgb(68, 68, 68); stroke-opacity: 1; stroke-width: 1px;"/>
                <path class="xtick ticks crisp" d="M0,348v5" transform="translate(588.32,0)"
                      style="stroke: rgb(68, 68, 68); stroke-opacity: 1; stroke-width: 1px;"/>
                <path class="xtick ticks crisp" d="M0,348v5" transform="translate(694.79,0)"
                      style="stroke: rgb(68, 68, 68); stroke-opacity: 1; stroke-width: 1px;"/>
                <path class="xtick ticks crisp" d="M0,348v5" transform="translate(801.25,0)"
                      style="stroke: rgb(68, 68, 68); stroke-opacity: 1; stroke-width: 1px;"/>
                <path class="xtick ticks crisp" d="M0,348v5" transform="translate(907.72,0)"
                      style="stroke: rgb(68, 68, 68); stroke-opacity: 1; stroke-width: 1px;"/>
                <g class="xtick">
                    <text text-anchor="middle" x="0" y="367.4" transform="translate(56,0)"
                          style="font-family: 'Open Sans', verdana, arial, sans-serif; font-size: 12px; fill: rgb(36, 36, 36); fill-opacity: 1; white-space: pre;">
                        0
                    </text>
                </g>
                <g class="xtick">
                    <text text-anchor="middle" x="0" y="367.4" transform="translate(162.45999999999998,0)"
                          style="font-family: 'Open Sans', verdana, arial, sans-serif; font-size: 12px; fill: rgb(36, 36, 36); fill-opacity: 1; white-space: pre;">
                        5k
                    </text>
                </g>
                <g class="xtick">
                    <text text-anchor="middle" x="0" y="367.4" transform="translate(268.93,0)"
                          style="font-family: 'Open Sans', verdana, arial, sans-serif; font-size: 12px; fill: rgb(36, 36, 36); fill-opacity: 1; white-space: pre;">
                        10k
                    </text>
                </g>
                <g class="xtick">
                    <text text-anchor="middle" x="0" y="367.4" transform="translate(375.39,0)"
                          style="font-family: 'Open Sans', verdana, arial, sans-serif; font-size: 12px; fill: rgb(36, 36, 36); fill-opacity: 1; white-space: pre;">
                        15k
                    </text>
                </g>
                <g class="xtick">
                    <text text-anchor="middle" x="0" y="367.4" transform="translate(481.86,0)"
                          style="font-family: 'Open Sans', verdana, arial, sans-serif; font-size: 12px; fill: rgb(36, 36, 36); fill-opacity: 1; white-space: pre;">
                        20k
                    </text>
                </g>
                <g class="xtick">
                    <text text-anchor="middle" x="0" y="367.4" transform="translate(588.32,0)"
                          style="font-family: 'Open Sans', verdana, arial, sans-serif; font-size: 12px; fill: rgb(36, 36, 36); fill-opacity: 1; white-space: pre;">
                        25k
                    </text>
                </g>
                <g class="xtick">
                    <text text-anchor="middle" x="0" y="367.4" transform="translate(694.79,0)"
                          style="font-family: 'Open Sans', verdana, arial, sans-serif; font-size: 12px; fill: rgb(36, 36, 36); fill-opacity: 1; white-space: pre;">
                        30k
                    </text>
                </g>
                <g class="xtick">
                    <text text-anchor="middle" x="0" y="367.4" transform="translate(801.25,0)"
                          style="font-family: 'Open Sans', verdana, arial, sans-serif; font-size: 12px; fill: rgb(36, 36, 36); fill-opacity: 1; white-space: pre;">
                        35k
                    </text>
                </g>
                <g class="xtick">
                    <text text-anchor="middle" x="0" y="367.4" transform="translate(907.72,0)"
                          style="font-family: 'Open Sans', verdana, arial, sans-serif; font-size: 12px; fill: rgb(36, 36, 36); fill-opacity: 1; white-space: pre;">
                        40k
                    </text>
                </g>
            </g>
            <g class="yaxislayer-above">
                <path class="ytick ticks crisp" d="M55,0h-5" transform="translate(0,334.15)"
                      style="stroke: rgb(68, 68, 68); stroke-opacity: 1; stroke-width: 1px;"/>
                <path class="ytick ticks crisp" d="M55,0h-5" transform="translate(0,276.33000000000004)"
                      style="stroke: rgb(68, 68, 68); stroke-opacity: 1; stroke-width: 1px;"/>
                <path class="ytick ticks crisp" d="M55,0h-5" transform="translate(0,218.5)"
                      style="stroke: rgb(68, 68, 68); stroke-opacity: 1; stroke-width: 1px;"/>
                <path class="ytick ticks crisp" d="M55,0h-5" transform="translate(0,160.68)"
                      style="stroke: rgb(68, 68, 68); stroke-opacity: 1; stroke-width: 1px;"/>
                <path class="ytick ticks crisp" d="M55,0h-5" transform="translate(0,102.85)"
                      style="stroke: rgb(68, 68, 68); stroke-opacity: 1; stroke-width: 1px;"/>
                <g class="ytick">
                    <text text-anchor="end" x="47.6" y="4.199999999999999" transform="translate(0,334.15)"
                          style="font-family: 'Open Sans', verdana, arial, sans-serif; font-size: 12px; fill: rgb(36, 36, 36); fill-opacity: 1; white-space: pre;">
                        −4
                    </text>
                </g>
                <g class="ytick">
                    <text text-anchor="end" x="47.6" y="4.199999999999999" transform="translate(0,276.33000000000004)"
                          style="font-family: 'Open Sans', verdana, arial, sans-serif; font-size: 12px; fill: rgb(36, 36, 36); fill-opacity: 1; white-space: pre;">
                        −2
                    </text>
                </g>
                <g class="ytick">
                    <text text-anchor="end" x="47.6" y="4.199999999999999" transform="translate(0,218.5)"
                          style="font-family: 'Open Sans', verdana, arial, sans-serif; font-size: 12px; fill: rgb(36, 36, 36); fill-opacity: 1; white-space: pre;">
                        0
                    </text>
                </g>
                <g class="ytick">
                    <text text-anchor="end" x="47.6" y="4.199999999999999" transform="translate(0,160.68)"
                          style="font-family: 'Open Sans', verdana, arial, sans-serif; font-size: 12px; fill: rgb(36, 36, 36); fill-opacity: 1; white-space: pre;">
                        2
                    </text>
                </g>
                <g class="ytick">
                    <text text-anchor="end" x="47.6" y="4.199999999999999" transform="translate(0,102.85)"
                          style="font-family: 'Open Sans', verdana, arial, sans-serif; font-size: 12px; fill: rgb(36, 36, 36); fill-opacity: 1; white-space: pre;">
                        4
                    </text>
                </g>
            </g>
            <g class="overaxes-above"/>
        </g>
    </g>
    <g class="polarlayer"/>
    <g class="ternarylayer"/>
    <g class="geolayer"/>
    <g class="funnelarealayer"/>
    <g class="pielayer"/>
    <g class="treemaplayer"/>
    <g class="sunburstlayer"/>
    <g class="glimages"/>
    <defs id="topdefs-ceb7a0">
        <g class="clips"/>
        <clipPath id="legendceb7a0">
            <rect width="758" height="29" x="0" y="0"/>
        </clipPath>
    </defs>
    <g class="layer-above">
        <g class="imagelayer"/>
        <g class="shapelayer"/>
    </g>
    <g class="infolayer">
        <g class="legend" pointer-events="all" transform="translate(56, 64.29999999999998)">
            <rect class="bg" shape-rendering="crispEdges"
                  style="stroke: rgb(68, 68, 68); stroke-opacity: 1; fill: rgb(255, 255, 255); fill-opacity: 1; stroke-width: 0px;"
                  width="758" height="29" x="0" y="0"/>
            <g class="scrollbox" transform="translate(0, 0)" clip-path="url('#legendceb7a0')">
                <g class="groups">
                    <g class="traces" transform="translate(0, 14.5)" style="opacity: 0.5;">
                        <text class="legendtext" text-anchor="start" x="40" y="4.680000000000001"
                              style="font-family: 'Open Sans', verdana, arial, sans-serif; font-size: 12px; fill: rgb(36, 36, 36); fill-opacity: 1; white-space: pre;">
                            Grid
                        </text>
                        <g class="layers" style="opacity: 1;">
                            <g class="legendfill"/>
                            <g class="legendlines">
                                <path class="js-line" d="M5,0h30"
                                      style="fill: none; stroke: rgb(192, 192, 192); stroke-opacity: 1; stroke-width: 1px;"/>
                            </g>
                            <g class="legendsymbols">
                                <g class="legendpoints"/>
                            </g>
                        </g>
                        <rect class="legendtoggle" x="0" y="-9.5" width="67.703125" height="19"
                              style="fill: rgb(0, 0, 0); fill-opacity: 0;"/>
                    </g>
                    <g class="traces" transform="translate(70.203125, 14.5)" style="opacity: 1;">
                        <text class="legendtext" text-anchor="start" x="40" y="4.680000000000001"
                              style="font-family: 'Open Sans', verdana, arial, sans-serif; font-size: 12px; fill: rgb(36, 36, 36); fill-opacity: 1; white-space: pre;">
                            Signal (<tspan style="font-weight:bold">w = e</tspan> ⊙ <tspan style="font-weight:bold">
                            c</tspan>)
                        </text>
                        <g class="layers" style="opacity: 1;">
                            <g class="legendfill"/>
                            <g class="legendlines">
                                <path class="js-line" d="M5,0h30"
                                      style="fill: none; stroke: rgb(132, 180, 196); stroke-opacity: 1; stroke-width: 1px;"/>
                            </g>
                            <g class="legendsymbols">
                                <g class="legendpoints"/>
                            </g>
                        </g>
                        <rect class="legendtoggle" x="0" y="-9.5" width="160.515625" height="19"
                              style="fill: rgb(0, 0, 0); fill-opacity: 0;"/>
                    </g>
                    <g class="traces" transform="translate(233.21875, 14.5)" style="opacity: 1;">
                        <text class="legendtext" text-anchor="start" x="40" y="4.680000000000001"
                              style="font-family: 'Open Sans', verdana, arial, sans-serif; font-size: 12px; fill: rgb(36, 36, 36); fill-opacity: 1; white-space: pre;">
                            Carrier (<tspan style="font-weight:bold">c</tspan>)
                        </text>
                        <g class="layers" style="opacity: 1;">
                            <g class="legendfill"/>
                            <g class="legendlines">
                                <path class="js-line" d="M5,0h30"
                                      style="fill: none; stroke: rgb(0, 0, 0); stroke-opacity: 0.6; stroke-width: 1px;"/>
                            </g>
                            <g class="legendsymbols">
                                <g class="legendpoints"/>
                            </g>
                        </g>
                        <rect class="legendtoggle" x="0" y="-9.5" width="106.078125" height="19"
                              style="fill: rgb(0, 0, 0); fill-opacity: 0;"/>
                    </g>
                    <g class="traces" transform="translate(341.796875, 14.5)" style="opacity: 1;">
                        <text class="legendtext" text-anchor="start" x="40" y="4.680000000000001"
                              style="font-family: 'Open Sans', verdana, arial, sans-serif; font-size: 12px; fill: rgb(36, 36, 36); fill-opacity: 1; white-space: pre;">
                            Envelope (<tspan style="font-weight:bold">e</tspan>)
                        </text>
                        <g class="layers" style="opacity: 1;">
                            <g class="legendfill"/>
                            <g class="legendlines">
                                <path class="js-line" d="M5,0h30"
                                      style="fill: none; stroke: rgb(0, 0, 255); stroke-opacity: 1; stroke-width: 2px;"/>
                            </g>
                            <g class="legendsymbols">
                                <g class="legendpoints"/>
                            </g>
                        </g>
                        <rect class="legendtoggle" x="0" y="-9.5" width="120" height="19"
                              style="fill: rgb(0, 0, 0); fill-opacity: 0;"/>
                    </g>
                    <g class="traces" transform="translate(464.296875, 14.5)" style="opacity: 0.5;">
                        <text class="legendtext" text-anchor="start" x="40" y="4.680000000000001"
                              style="font-family: 'Open Sans', verdana, arial, sans-serif; font-size: 12px; fill: rgb(36, 36, 36); fill-opacity: 1; white-space: pre;">
                            Positive Frontier
                        </text>
                        <g class="layers" style="opacity: 1;">
                            <g class="legendfill"/>
                            <g class="legendlines">
                                <path class="js-line" d="M5,0h30"
                                      style="fill: none; stroke: rgb(255, 0, 0); stroke-opacity: 1; stroke-width: 2px;"/>
                            </g>
                            <g class="legendsymbols">
                                <g class="legendpoints"/>
                            </g>
                        </g>
                        <rect class="legendtoggle" x="0" y="-9.5" width="140.734375" height="19"
                              style="fill: rgb(0, 0, 0); fill-opacity: 0;"/>
                    </g>
                    <g class="traces" transform="translate(607.53125, 14.5)" style="opacity: 0.5;">
                        <text class="legendtext" text-anchor="start" x="40" y="4.680000000000001"
                              style="font-family: 'Open Sans', verdana, arial, sans-serif; font-size: 12px; fill: rgb(36, 36, 36); fill-opacity: 1; white-space: pre;">
                            Negative Frontier
                        </text>
                        <g class="layers" style="opacity: 1;">
                            <g class="legendfill"/>
                            <g class="legendlines">
                                <path class="js-line" d="M5,0h30"
                                      style="fill: none; stroke: rgb(255, 0, 0); stroke-opacity: 1; stroke-width: 2px;"/>
                            </g>
                            <g class="legendsymbols">
                                <g class="legendpoints"/>
                            </g>
                        </g>
                        <rect class="legendtoggle" x="0" y="-9.5" width="147.765625" height="19"
                              style="fill: rgb(0, 0, 0); fill-opacity: 0;"/>
                    </g>
                </g>
            </g>
            <rect class="scrollbar" rx="20" ry="3" width="0" height="0"
                  style="fill: rgb(128, 139, 164); fill-opacity: 1;" x="0" y="0"/>
        </g>
        <g class="g-gtitle">
            <text class="gtitle" x="500" y="12" text-anchor="middle" dy="0.7em"
                  style="font-family: 'Open Sans', verdana, arial, sans-serif; font-size: 17px; fill: rgb(36, 36, 36); opacity: 1; font-weight: normal; white-space: pre;">
                <tspan style="font-weight:bold">sinusoid</tspan>
            </text>
        </g>
        <g class="g-xtitle">
            <text class="xtitle" x="525.5" y="395.20625" text-anchor="middle"
                  style="font-family: 'Open Sans', verdana, arial, sans-serif; font-size: 14px; fill: rgb(36, 36, 36); opacity: 1; font-weight: normal; white-space: pre;">
                <tspan style="font-weight:bold">
                    <tspan style="font-style:italic">i</tspan>
                </tspan>
            </text>
        </g>
        <g class="g-ytitle" transform="translate(8.6591796875,0)">
            <text class="ytitle" transform="rotate(-90,5.340625000000003,218.5)" x="5.340625000000003" y="218.5"
                  text-anchor="middle"
                  style="font-family: 'Open Sans', verdana, arial, sans-serif; font-size: 14px; fill: rgb(36, 36, 36); opacity: 1; font-weight: normal; white-space: pre;">
                <tspan style="font-weight:bold">Amplitude</tspan>
            </text>
        </g>
    </g>
</svg>