<svg class="main-svg" xmlns="http://www.w3.org/2000/svg" width="1000"
     height="400" style="" viewBox="0 0 1000 400">
    <rect x="0" y="0" width="1000" height="400" style="fill: rgb(255, 255, 255); fill-opacity: 1;"/>
    <defs id="defs-afae3a">
        <g class="clips">
            <clipPath id="clipafae3axyplot" class="plotclip">
                <rect width="939" height="257"/>
            </clipPath>
            <clipPath class="axesclip" id="clipafae3ax">
                <rect x="56" y="0" width="939" height="400"/>
            </clipPath>
            <clipPath class="axesclip" id="clipafae3ay">
                <rect x="0" y="90" width="1000" height="257"/>
            </clipPath>
            <clipPath class="axesclip" id="clipafae3axy">
                <rect x="56" y="90" width="939" height="257"/>
            </clipPath>
        </g>
        <g class="gradients"/>
    </defs>
    <g class="bglayer"/>
    <g class="layer-below">
        <g class="imagelayer"/>
        <g class="shapelayer"/>
    </g>
    <g class="cartesianlayer">
        <g class="subplot xy">
            <g class="layer-subplot">
                <g class="shapelayer"/>
                <g class="imagelayer"/>
            </g>
            <g class="gridlayer">
                <g class="x"/>
                <g class="y"/>
            </g>
            <g class="zerolinelayer"/>
            <path class="xlines-below"/>
            <path class="ylines-below"/>
            <g class="overlines-below"/>
            <g class="xaxislayer-below"/>
            <g class="yaxislayer-below"/>
            <g class="overaxes-below"/>
            <g class="plot" transform="translate(56, 90)" clip-path="url('#clipafae3axyplot')">
                <g class="scatterlayer mlayer">
                    <g class="trace scatter trace121e0d" style="stroke-miterlimit: 2; opacity: 1;">
                        <g class="fills"/>
                        <g class="errorbars"/>
                        <g class="lines">
                            <path class="js-line"
                                  d="M0,141.74L0.79,171.09L0.81,169.79L0.83,162.75L0.85,162.2L0.92,177.01L0.94,185L1.11,195.37L1.6,98.54L1.62,93.3L2.11,12.85L2.34,78.69L2.36,89.58L3.15,196.84L3.39,176.15L3.41,171.94L3.49,169.18L3.6,185.53L3.79,179.47L3.81,181.4L4.24,190.46L4.41,175.63L4.43,169.23L4.71,184.76L4.94,147.13L5.22,156.97L5.24,157.98L5.45,160.75L5.73,136.86L5.96,155.5L5.98,158.71L6.17,178.84L6.54,138.06L6.56,135.19L7.52,103.2L7.54,102.29L8.07,65.84L8.3,89L8.33,93.11L8.71,67.86L10.05,244.15L10.35,224.49L10.37,222.89L11.46,138.2L11.48,134.6L11.75,109.4L12.16,144.89L12.18,146.21L12.2,147.35L12.52,124.84L12.54,122.25L13.05,87.79L13.56,102.71L13.58,101.94L13.97,88.56L14.16,105.29L14.18,108.16L15.22,154.46L15.25,155.53L15.61,147.62L16.03,187.41L16.05,189.95L16.61,218.97L17.03,213.14L17.06,211.64L18.44,74.69L18.76,88.04L18.78,90.27L19.29,115.99L19.63,104.53L19.65,103.34L19.7,101.85L20.04,117.98L20.06,120.13L21.31,170.84L21.34,171.17L22.55,192.9L22.57,192.65L23.25,160.08L23.27,157.16L24.47,112.55L24.49,111.58L25.23,69.73L25.25,68.65L25.34,65.87L25.76,79.21L25.79,80.54L26.28,141.19L26.3,144.14L26.96,189.62L27.23,183.8L27.26,182.89L27.34,183L27.72,164.9L28.15,170.92L28.17,172.11L28.62,200.25L28.89,175.8L28.92,173.45L30.24,96.25L30.26,96.55L30.28,96.73L30.73,104.89L31.19,103.32L31.22,103.64L31.73,100.37L33.73,202L33.94,194.8L33.96,193.92L34.15,196.1L34.3,186.38L34.32,183.87L35.81,111.58L35.99,118.76L36.01,120.07L36.22,125.17L36.5,112.52L36.52,110.9L36.96,86.9L37.45,96.5L37.48,97.33L37.71,111.47L37.73,112.77L39.16,185.95L39.22,184.18L39.24,183.69L39.5,173.56L39.86,185.43L39.95,185.11L39.97,185.29L40.09,185.81L40.29,181.75L40.31,180.66L42.52,91.62L42.71,98.63L42.74,100.12L43.86,129.43L43.88,129.56L44.1,136.18L44.12,137.2L45.57,207.57L45.91,194.61L45.93,193.09L47.55,116.33L47.57,115.25L48.23,99.67L48.55,102.37L48.57,101.97L48.7,100.36L49,104.99L49.02,105.63L50.95,187.19L51.25,179.83L51.27,179.63L51.57,170.21L51.59,169.27L51.76,165.55L52.27,171.94L52.3,171.52L52.32,171.94L52.7,164.63L52.72,164.03L54.3,77.65L54.64,91.71L54.66,93.52L56.17,157.99L56.19,159.39L57.55,191.16L57.73,187.14L57.75,186.17L59.66,112.53L59.68,111.99L59.98,112.5L60.83,98.41L61.03,102.95L61.05,103.97L62.45,165.65L62.47,167.53L62.98,199.38L63.41,185.92L63.43,185.21L65.22,123.28L65.24,122.91L65.5,123.38L65.75,115.01L65.77,113.51L66.35,93.14L66.65,103.72L66.67,105.13L68.33,166.21L68.37,166.09L68.39,166.01L68.76,161.08L69.01,167.58L69.03,168.32L69.71,194.43L69.97,179.33L69.99,176.85L71.54,107.72L71.57,108.05L71.95,114.65L72.16,109.68L72.18,109.47L72.78,101.35L72.99,107L73.01,108.45L74.93,187.74L74.95,187.71L74.97,187.49L75.78,168.58L75.8,168.02L76.42,146.03L76.44,144.28L76.93,122.8L77.49,126.58L77.51,126.64L77.72,121.65L77.74,120.29L78.29,93.03L78.66,106.02L78.68,107.31L80.21,167.58L80.57,162.7L80.59,162.73L80.79,164.38L80.81,164.33L80.83,165.1L81.57,182.66L81.83,177.7L81.85,176.63L83.7,105.98L83.92,108.38L83.94,108.8L84,109L84.28,106.93L84.3,106.93L84.32,106.89L84.94,115.63L84.96,116.52L86.36,160.64L86.39,161.1L87.09,184.41L87.45,175.46L87.47,175.09L88.98,124.19L89.18,126.55L89.2,126.86L89.43,129.62L89.69,121.9L89.71,120.57L90.26,95.54L90.64,107.04L90.67,107.92L92.48,175.71L92.62,174.17L92.65,174.04L92.94,170.48L93.35,175.13L93.37,174.95L93.39,175.25L93.71,169.77L93.73,168.91L95.82,103.23L95.92,104.42L95.95,104.41L97.16,128.74L97.18,129.32L98.97,184.24L99.2,178.67L99.23,177.37L102.14,104.64L102.16,104.89L102.19,104.69L104.02,162.29L104.04,163.62L104.55,183.46L104.95,173.56L104.97,172.72L107.76,98.96L108.04,107.4L108.06,108.88L109.21,134.66L109.23,135.16L110.83,184.04L111.17,175.31L111.19,174.36L112.79,128.84L112.81,128.21L113.56,105.91L113.92,112.52L113.94,113.18L115.62,143.92L115.64,144.26L116,157.68L116.03,158.74L116.64,180.12L116.96,172.18L116.98,171.38L118.56,138.44L118.58,137.99L119.03,127.47L119.05,126.83L119.75,103.07L120.05,108.6L120.07,109.55L122.58,174.86L122.97,170.26L122.99,169.65L123.41,159.72L123.44,159.25L125.46,110.68L125.84,115.8L125.86,116.08L127.33,142.91L127.35,143.38L128.59,177.62L128.95,170.79L128.97,170.09L131.8,107.28L131.87,107.73L131.89,108L132.34,119.69L132.36,120.32L134.21,166.76L134.25,166.65L134.27,166.53L134.66,164.71L135.13,165.57L135.15,165.76L135.74,153.1L135.76,152.23L137.36,117.68L137.68,118.53L137.7,118.45L138.09,117.35L138.11,117.1L138.26,116.43L138.53,119.14L138.55,119.58L140.53,170.53L140.56,170.65L140.66,171.33L141.09,167.85L141.11,167.97L141.13,167.55L141.7,156.7L141.73,155.81L142.9,123.52L143.32,123.89L143.34,123.89L144.13,116.98L144.43,120.24L144.45,120.9L144.94,134.52L144.96,135.36L146.33,162.04L146.39,161.95L146.41,162.06L147.03,166.5L147.28,164.33L147.3,163.83L147.84,151.04L147.86,150.54L149.22,118.06L149.73,119.89L149.75,119.83L150.2,117.05L150.41,119.22L150.44,119.71L151.33,145.8L151.35,146.38L152.1,166.28L152.59,162.31L152.61,161.99L152.76,161.52L153.12,162.93L153.14,163.04L153.42,161.71L153.44,161.19L155.72,120.4L155.91,120.63L155.93,120.52L155.97,120.47L157.08,136.13L157.1,137.14L158.89,167.89L159.08,165.6L159.1,165.19L161.76,116.39L161.78,116.41L161.81,116.22L162.38,126.12L162.4,126.97L164.42,163.7L164.45,163.67L164.47,163.78L164.51,163.81L166.11,146.79L166.13,146.19L167.7,120.13L167.92,120.73L167.94,120.88L169.11,135.04L169.13,135.9L170.64,167.7L170.88,166.43L170.9,165.9L171.39,153.63L171.41,153.14L173.69,118.81L173.94,120.69L173.96,121.18L175.92,154.01L175.94,154.57L176.65,167.97L176.97,162.73L176.99,161.69L178.93,127.41L178.95,126.64L179.61,116.32L179.97,119.99L179.99,120.13L181.37,141.94L181.4,142.41L182.57,165.11L182.78,163.72L182.8,163.56L185.23,123.91L185.25,123.44L185.63,119.61L185.99,123.24L186.02,123.66L187.08,137.69L187.1,138.55L188.12,153.55L188.14,153.97L188.72,167.83L189.08,162.35L189.1,161.74L190.87,130.27L190.89,130.12L191.76,119.5L192.08,122.67L192.11,123.14L193.72,148.84L193.75,149.58L194.47,159.8L194.85,158.51L194.87,158.38L195.19,158.78L195.41,157.88L195.43,157.69L196.02,146.36L196.04,145.99L197.62,123.25L197.71,123.53L197.73,123.5L199.05,134.93L199.07,135.77L200.49,160.3L200.52,160.47L200.75,161.44L201.11,158.48L201.13,158.15L202.33,141.59L202.35,140.79L203.82,126.22L203.84,126.01L204.22,123.47L204.54,126.34L204.56,126.72L206.5,158.04L206.67,157.46L206.69,157.44L206.86,156.96L207.29,158.81L207.31,158.82L207.42,159.14L207.65,157.3L207.67,157.11L209.57,124.21L209.59,124.46L209.61,124.29L210.08,126.33L210.1,126.23L210.12,126.41L210.57,126.7L210.61,127.03L210.63,127.17L211.21,139.24L211.23,140.15L211.97,154.46L212.4,153.16L212.42,153.17L212.72,154.98L212.74,155.28L213.21,159.03L213.53,156.31L213.55,155.92L214.53,138.69L214.55,138.19L215.19,128.49L215.57,131.07L215.59,131L215.63,131.21L215.95,129.01L215.97,128.54L216.42,122.28L216.72,126.08L216.74,126.69L218.44,156.99L218.64,156.52L218.66,156.47L218.89,155.62L219.3,157.29L219.32,157.72L219.53,158.65L220.08,147.56L220.11,147.09L221.19,129.53L221.23,129.59L221.26,129.56L222.13,127.77L222.45,128.52L222.47,128.59L223.26,135.82L223.28,136.53L224.11,154.48L224.56,152.33L224.58,152.28L225.24,158.21L225.49,156.08L225.51,155.86L227.28,128.01L227.81,129.4L227.84,129.37L228.41,125.24L228.69,127.28L228.71,127.68L230.69,156.91L231.05,155.84L231.07,155.84L232.31,144.97L232.33,144.59L234.01,126.31L234.07,126.42L234.1,126.69L234.12,126.45L234.52,130.34L234.54,130.48L237.2,158.26L237.35,157.44L237.37,157.22L238.4,144.62L238.42,144.18L240.19,126.19L240.21,126.28L240.59,129.17L240.61,129.62L243.12,158.02L243.42,155.65L243.44,155.29L245.83,128.15L245.85,127.96L246.15,126.55L246.51,128.62L246.53,128.63L249.06,157.08L249.3,156.25L249.32,156.01L251.49,132.16L251.51,131.79L252.02,127.11L252.41,129.62L252.43,129.7L255.22,157.3L255.39,156.37L255.41,155.98L258.18,125.64L258.56,128.26L258.58,128.37L260.01,143.67L260.03,143.7L261.12,155.92L261.46,154.68L261.48,154.51L264.08,129.53L264.54,130.42L264.57,130.47L265.01,131.98L265.03,132.27L266.82,151.53L266.84,151.84L267.38,155.87L267.74,154.07L267.76,153.93L270.53,128.76L270.55,128.81L270.87,130.55L270.89,130.91L273.57,153.99L273.74,153.52L273.76,153.28L274.15,149.28L274.17,148.89L276.3,131.85L276.32,132.04L276.87,130.3L277.11,131.33L277.13,131.49L278.96,152L279.3,151.5L279.32,151.48L279.6,151.57L279.81,151.97L279.83,152.08L280.22,150.71L280.24,150.44L282.28,132.41L282.3,132.59L282.77,131.58L283.05,132.27L283.07,132.46L283.69,138.19L283.71,138.64L285.65,153.61L285.75,153.55L285.77,153.32L286.26,148.8L286.28,148.86L286.31,148.23L288.71,130.8L288.78,130.96L288.8,130.91L289.33,134.53L289.35,134.72L291.35,150.71L291.37,150.49L291.78,150.93L292.1,150.33L292.12,150.16L292.14,150.32L292.54,147.65L292.57,147.48L293.99,135.13L294.01,135.19L294.04,135.02L294.76,132.07L295.14,132.95L295.16,132.92L295.97,140.43L295.99,140.81L297.76,152.41L297.78,152.44L297.87,152.66L298.12,151.32L298.14,151.32L298.17,150.99L300.59,133L300.61,133.04L300.64,132.96L300.98,132.54L301.25,133.37L301.27,133.67L302.08,141.88L302.11,142.22L303.49,151.54L303.81,150.54L303.83,150.32L305.45,138.86L305.47,138.64L306.68,132.62L306.7,132.7L306.73,132.7L307.85,137.26L307.88,137.53L309.75,151.42L309.86,151.24L309.88,151.07L310.52,146.6L310.54,146.68L310.56,146.21L312.56,132.18L312.73,132.56L312.75,132.71L314.18,141.31L314.2,141.58L315.71,152.5L316.07,150.48L316.09,150.33L318.8,131.25L318.95,131.49L318.97,131.9L318.99,131.71L319.35,135.27L319.37,135.49L320.61,142.87L320.63,142.94L321.89,150.69L322.01,150.54L322.04,150.21L322.06,150.44L322.55,147.64L322.57,147.42L324.74,132.59L324.8,132.71L324.82,132.63L327.83,151.82L328.21,150.1L328.23,149.94L330.49,134.69L330.51,134.71L331.04,133.45L331.32,134.02L331.34,134.31L331.36,134.16L331.7,137.23L331.72,137.33L332.75,142.14L332.77,142.33L333.77,149.58L334.15,149.09L334.17,149.11L334.6,147.35L334.62,147.59L334.64,147.01L334.66,147.27L335.11,143.43L335.13,143.52L336.07,139.65L336.09,139.37L336.83,132.87L337.28,134.03L337.3,134.34L339.5,147.51L339.52,147.78L340.01,150.8L340.35,149.09L340.37,148.86L341.65,142.46L341.67,142.5L342.75,135.21L342.77,135.27L343.26,133.92L343.54,135.05L343.56,135.02L344.56,140.98L344.58,140.89L344.61,141.12L346.39,149.42L346.63,148.76L346.65,148.53L349.18,134.91L349.44,135.22L349.46,135.44L350.12,137.8L350.14,137.95L352.29,149.35L352.31,149.2L352.68,147.73L352.7,147.6L354.76,136.73L354.78,136.89L355.4,135.46L355.61,135.85L355.64,135.88L356.85,142.06L356.87,142.38L357.87,147.87L358.19,147.54L358.21,147.37L359.38,145.08L359.4,145.11L359.43,144.78L360.9,136.4L361.09,136.49L361.11,136.59L362.26,137.23L362.28,137.4L364.26,147.12L364.37,147.05L364.39,147.01L365.37,145.6L365.39,145.47L367.18,135.54L367.56,136.18L367.58,136.18L368.88,142.03L368.9,142.33L370.2,147.67L370.58,146.77L370.6,146.74L372.44,138.57L372.46,138.28L373.1,136.42L373.42,137L373.44,137.03L374.88,141.04L374.91,141.25L376.16,146.62L376.18,146.57L376.2,146.68L376.91,147.01L376.93,147.32L378.12,140.4L378.14,140.24L379.68,136.9L379.7,137.04L380.04,136.65L380.38,137.84L380.4,137.94L382.25,147.12L382.42,146.98L382.44,146.9L383.44,144.48L383.47,144.4L385.32,136.46L385.7,137.17L385.72,137.23L386.66,138.88L386.68,138.83L388.34,146.88L388.47,146.68L388.49,146.52L390.22,142.22L390.24,142.03L391.73,136.75L391.77,136.82L391.79,136.98L392.3,138.24L392.32,138.44L394.77,147.05L395.03,146.43L395.05,146.4L397.63,135.87L397.88,136.57L397.9,136.62L399.01,140.67L399.03,140.48L400.01,144.34L400.03,144.5L400.73,147.43L401.01,146.69L401.03,146.52L403.54,137.72L403.57,137.67L403.93,136.98L404.31,137.72L404.33,137.88L406.87,146.88L407.21,146.1L407.23,145.99L409.85,136.76L410.04,137.28L410.06,137.47L412.85,146.52L413.19,145.56L413.21,145.38L415.75,137.34L415.77,137.36L416.02,137.39L416.26,137.88L416.28,137.99L418.13,144.12L418.15,144.34L418.71,145.66L419.09,145.14L419.11,144.95L419.13,145.11L419.81,144.53L419.83,144.62L421.81,137.4L421.86,137.42L421.88,137.47L423.26,140.56L423.28,140.46L423.3,140.72L425.03,145.99L425.41,145.36L425.43,145.27L427.82,138.75L427.97,138.8L427.99,138.86L428.61,138.14L428.88,138.69L428.9,138.93L430.78,144.97L431.18,144.76L431.2,144.76L431.29,144.7L431.69,145.19L431.97,144.7L431.99,144.48L434.33,138.68L434.36,138.68L434.7,138.08L435.08,138.85L435.1,138.96L436.63,144.8L436.74,144.61L436.76,144.58L437.76,144.64L437.78,144.78L437.83,144.83L439.3,139.13L439.32,139.19L439.66,138.64L440,139.4L440.02,139.4L440.04,139.43L440.19,139.65L440.59,138.97L440.62,138.99L440.64,138.85L440.98,138.58L441.25,139.24L441.28,139.3L442.66,144.53L443.06,144.09L443.09,144.17L443.47,144.17L443.77,144.48L443.79,144.65L444,144.69L444.75,142.47L444.77,142.39L445.53,138.9L445.79,139.15L445.81,139.13L446.02,139.32L446.54,138.94L446.56,138.88L447.9,141.48L447.92,141.67L448.92,144.28L449.15,144.23L449.18,144.09L449.64,144.69L449.94,144.47L449.96,144.1L449.98,144.45L450.62,142.91L450.65,142.94L451.77,138.93L451.79,139.04L451.82,138.82L451.86,138.77L452.63,139.59L452.65,139.43L453.16,139.16L453.41,139.6L453.43,139.62L455.44,144.51L455.56,144.4L455.59,144.23L455.61,144.39L456.03,143.93L456.31,144.06L456.33,144.01L457.08,140.9L457.1,140.76L457.5,139.9L458.01,140.07L458.03,140.09L458.76,138.68L459.1,139.26L459.12,139.38L461.12,143.87L461.14,143.68L461.85,144.54L462.14,144.14L462.16,143.98L464.36,138.94L464.76,139.3L464.78,139.33L465.55,140.01L465.57,140.1L467.34,144.64L467.66,143.95L467.68,143.81L468.21,143.3L468.55,143.57L468.57,143.68L470.53,139.32L470.72,139.52L470.75,139.51L472.07,141.15L472.09,141.34L472.15,141.31L473.39,144.18L473.41,144.21L473.88,144.61L474.15,144.12L474.17,144.06L476.54,138.83L476.62,138.9L476.64,139.11L476.67,138.9L477.26,140.07L477.28,140.06L478.18,141.48L478.35,141.39L478.37,141.22L479.5,144.56L479.52,144.56L480.73,142.65L480.75,142.77L480.77,142.49L480.8,142.68L481.43,141.89L481.46,141.89L482.73,139.16L483.1,139.38L483.12,139.52L483.86,140.68L483.88,140.79L486.18,144.26L486.35,144.07L486.37,143.88L489.27,139.21L489.36,139.33L489.38,139.44L492.19,144.03L492.21,143.99L492.23,143.99L495.08,139.51L495.32,139.68L495.34,139.79L496.83,142.6L496.85,142.58L496.87,142.71L497.7,143.46L497.89,143.3L497.92,143.27L498.92,143.16L498.98,143.04L499,143.02L501.05,139.88L501.07,139.95L501.36,139.65L501.79,140.12L501.81,140.15L503.96,143.78L503.98,143.74L504.35,143.85L504.6,143.37L504.62,143.52L504.64,143.34L507.43,139.95L507.45,140.13L508.67,141.66L508.69,141.81L510.44,143.49L510.46,143.43L511.18,142.91L511.2,142.82L513.1,140.39L513.12,140.5L513.78,139.62L513.95,139.76L513.97,139.77L515.95,143.1L515.97,143.05L517.04,143.43L517.25,142.93L517.27,142.91L518.14,140.56L518.53,140.79L518.55,141.03L519.38,140.28L519.4,140.37L519.95,140.18L520.15,140.28L520.17,140.4L520.66,141.25L520.68,141.15L520.7,141.28L521.74,143.07L521.98,142.85L522,142.88L522.53,142.99L522.7,143.23L522.72,143.32L523.19,143.45L523.4,143.01L523.42,142.97L525.02,140.18L525.15,140.45L525.17,140.42L526,140.31L526.02,140.18L528.32,143.01L528.45,142.82L528.47,142.77L529.81,142.13L529.83,142.03L531.18,140.42L531.2,140.5L531.45,140.2L531.96,140.46L531.98,140.57L533.56,142.58L533.58,142.72L534.84,143.38L534.86,143.29L534.88,143.27L536.05,141.58L536.07,141.47L536.09,141.66L536.73,140.65L536.75,140.79L536.78,140.62L538.01,140.45L538.03,140.56L538.56,141.22L538.59,141.26L539.59,142.17L539.61,142.08L540.69,143.13L540.76,143.1L540.78,143.08L541.78,142.19L541.8,142.14L543.82,139.85L543.95,140.01L543.97,140.1L546.36,142.94L546.38,142.88L548.44,141.67L548.47,141.56L550.02,140.5L550.04,140.72L550.06,140.51L550.68,141.14L550.74,141.08L550.76,141.17L552.66,143.13L552.68,142.97L552.94,143.21L553.41,142.76L553.43,142.77L555.92,140.01L556.11,140.54L556.13,140.62L557.15,141.67L557.24,141.5L557.26,141.45L558.88,143.18L559.11,142.8L559.13,142.69L560.71,141.77L560.73,141.78L561.86,140.31L562.03,140.39L562.05,140.53L565.14,143.19L565.22,143.08L565.24,142.97L567.08,141.36L567.1,141.47L568.27,140.37L568.29,140.54L571.21,142.93L571.23,142.88L573.38,140.94L573.4,140.98L573.42,140.87L573.95,140.23L574.31,140.65L574.34,140.72L576.27,142.54L576.3,142.54L578.55,141.85L578.57,141.69L579.83,141.14L579.85,141.17L580.81,140.84L580.96,141.08L580.98,141.14L583.92,142.76L583.96,142.69L583.98,142.52L586.13,140.67L586.15,140.73L589.2,142.57L589.22,142.49L592.97,140.64L593.05,140.79L593.07,140.83L594.56,142.66L594.91,142.41L594.93,142.3L596.23,142.19L596.25,142.1L597.29,141.33L597.31,141.36L597.33,141.36L598.7,140.94L598.72,140.84L598.76,140.76L599.53,141.64L599.55,141.56L599.57,141.61L601.72,142.49L601.74,142.46L602.53,142.55L602.55,142.35L602.57,142.5L603.15,141.45L603.17,141.47L603.19,141.37L604.21,140.9L604.27,140.95L604.3,140.97L606.4,142.44L606.42,142.5L607.13,142.27L607.15,142.1L607.3,142.03L607.89,142.36L607.92,142.27L607.94,142.33L608.96,141.75L608.98,141.7L610.17,141.3L610.19,141.36L611.85,141.26L611.88,141.31L613.9,142.52L613.96,142.39L613.98,142.39L616.69,140.95L616.71,141.06L618.63,142.16L618.65,141.89L619.31,142.32L619.41,142.25L619.43,142.24L622.31,141.04L622.33,141L623.25,141.03L623.29,141.09L623.31,141.12L625.35,142.46L625.38,142.41L626.61,142.02L626.63,141.97L629.06,141.31L629.08,141.42L633.17,141.95L633.19,141.83L633.21,141.99L633.85,141.41L633.89,141.42L633.91,141.36L634.6,140.87L634.85,141.06L634.87,141.09L637.53,142.52L637.56,142.36L637.58,142.52L638.24,142L638.26,142.03L638.28,141.92L641.39,141.3L641.41,141.37L642.56,141.42L642.58,141.37L643.5,142.61L643.77,142.5L643.79,142.39L644.88,141.92L644.9,141.78L647.8,141.66L647.82,141.7L650.5,142.24L650.52,142.13L651.71,141.86L651.74,141.94L653.38,141L653.4,141.12L655.06,142.03L655.08,142.11L656.1,142.08L656.12,142.06L657.74,141.47L657.76,141.33L658.4,141.52L658.53,141.45L658.55,141.5L659.93,141.41L659.96,141.25L661.19,141.89L661.21,142L661.53,141.81L661.94,142L661.96,142.08L663.34,142.08L663.36,142.03L665.47,141.23L665.49,141.28L665.51,141.31L667.64,142.25L667.66,142.16L668.71,141.81L668.73,141.78L670.01,141.83L670.03,141.8L671.54,141.48L671.56,141.52L672.82,141.72L672.84,141.77L673.82,142.08L673.84,142L675.67,141.72L675.69,141.59L678.14,141.52L678.16,141.63L678.18,141.47L678.88,141.91L678.91,141.8L679.78,141.88L679.8,141.74L680.55,141.99L680.57,141.94L680.59,142.02L681.76,141.91L681.78,141.88L684.89,141.55L684.91,141.72L686.34,141.89L686.36,141.89L689.47,141.74L689.49,141.78L691.09,141.59L691.11,141.7L692.13,141.99L692.15,142.05L693.41,142.06L693.43,141.92L694.32,141.74L694.34,141.67L695.88,141.44L695.9,141.52L697.22,141.72L697.24,141.61L698.03,142.13L698.05,141.97L698.07,142.14L698.67,141.78L698.79,141.85L698.81,141.83L701.46,141.48L701.48,141.42L705.95,141.66L705.97,141.61L708.5,141.66L708.52,141.86L709.29,141.64L709.31,141.77L715.17,141.64L715.19,141.7L716.87,141.97L716.89,141.86L718.36,141.67L718.38,141.64L720.13,141.64L720.15,141.56L720.19,141.52L720.45,141.75L720.9,141.63L720.92,141.52L724.09,141.86L724.11,141.75L725.11,141.59L725.13,141.55L726.47,141.56L726.5,141.66L728.73,141.94L728.75,141.78L728.8,141.77L729.37,141.88L729.5,141.86L729.52,141.85L731.73,141.63L731.76,141.47L731.78,141.67L731.8,141.42L732.5,141.45L732.52,141.42L734.71,141.91L734.74,141.99L737.14,141.55L737.16,141.45L738.29,141.74L738.31,141.67L740.27,141.83L740.29,141.74L742.51,141.86L742.53,141.81L743.76,141.5L743.79,141.55L745.32,141.58L745.34,141.66L750.09,141.69L750.11,141.8L751.94,141.64L751.96,141.69L754.33,141.89L754.35,141.86L756.39,141.5L756.41,141.58L757.73,141.78L757.75,141.94L758.54,141.77L758.56,141.78L759.95,141.83L759.97,141.88L764.1,141.7L764.12,141.89L764.14,141.69L764.82,142.02L764.84,141.85L764.87,141.95L766.4,141.88L766.42,141.91L768.14,141.72L768.17,141.77L939,141.7"
                                  style="vector-effect: non-scaling-stroke; fill: none; stroke: rgb(132, 180, 196); stroke-opacity: 1; stroke-width: 1px; opacity: 1;"/>
                        </g>
                        <g class="points"/>
                        <g class="text"/>
                    </g>
                    <g class="trace scatter tracef4c025" style="stroke-miterlimit: 2; opacity: 1;">
                        <g class="fills"/>
                        <g class="errorbars"/>
                        <g class="lines">
                            <path class="js-line"
                                  d="M0,141.74L0.79,159.37L0.81,158.59L0.83,154.36L0.85,154.03L0.92,162.93L0.94,167.73L1.11,173.96L1.75,106.77L2.24,118.79L2.26,121.72L3.15,155.65L3.26,152.16L3.28,151.6L3.49,148.69L3.9,153.39L3.96,153.22L3.98,153.82L4.24,154.17L4.41,150.4L4.43,148.77L4.71,152.77L4.94,143.12L5.22,145.66L5.24,145.92L5.45,146.65L5.73,140.47L5.96,145.31L5.98,146.14L6.17,151.39L6.54,140.78L6.56,140.03L7.52,131.57L7.54,131.33L8.07,121.6L8.3,127.71L8.33,128.8L8.71,122.01L10.05,169.46L10.37,163.78L10.39,163.53L10.94,149.91L10.97,149.21L11.75,132.82L11.99,137.89L12.01,138.55L12.2,143.29L12.63,134.97L12.65,134.4L13.05,126.66L13.58,130.55L13.61,130.2L13.97,126.73L14.22,133.59L14.25,134.06L14.54,133.76L16.01,154.16L16.03,154.92L16.61,164.18L16.99,163.22L17.01,163.02L18.44,121.84L18.76,125.75L18.78,126.41L19.29,134.02L19.63,130.55L19.65,130.18L19.7,129.73L20.04,134.56L20.06,135.2L21.31,150.66L21.34,150.77L22.55,157.66L22.57,157.59L22.59,157.43L22.74,157.53L22.98,155.52L23,155.13L25.34,117.3L25.53,119.1L25.55,119.39L26.06,132.72L26.08,133.51L26.96,157.48L27.4,155.14L27.43,154.89L27.72,149.42L28.19,152.25L28.21,152.79L28.62,161.38L28.87,154.09L28.89,153.21L30.24,126.14L30.53,128.62L30.56,128.84L30.73,129.02L31,127.26L31.02,127.1L31.28,128.96L31.62,127.94L31.64,127.81L31.73,127.27L31.96,130.45L31.98,130.87L33.73,163.4L33.92,161.18L33.94,160.87L34.15,161.4L35.81,130.57L36.2,135.46L36.22,135.57L36.96,121.09L37.39,123.82L37.41,124.1L38.67,153.35L38.69,154.12L39.16,158.93L39.43,154.89L39.46,154.64L39.5,154.17L39.8,158.28L39.82,158.51L40.12,159.11L40.35,156.38L40.37,156.03L41.76,130.53L41.78,129.72L42.52,121.22L42.69,123.57L42.71,124.04L44.27,141.64L44.29,141.87L45.57,170.05L45.91,164.61L45.93,163.96L47.57,129.95L47.59,129.45L48.23,122.81L48.65,123.22L48.68,123.11L48.8,122.98L48.95,124.38L48.97,124.57L50.55,155.56L50.57,156.36L50.95,163.2L51.38,159.23L51.4,158.98L51.76,153.15L52.23,156.13L52.25,156.01L52.32,156.36L52.74,152.06L52.76,151.76L53.81,121.42L53.83,120.77L54.3,109.51L54.66,117.39L54.68,118.24L56.04,145.87L56.06,146.47L57.43,166.82L57.45,167.07L57.55,167.56L57.77,164.39L57.79,163.79L59.15,139.19L59.17,138.74L60.77,118.34L60.79,118.27L61,120.17L61.03,120.59L62.98,173.96L63.39,167.15L63.41,166.57L66.37,113.35L66.54,115.86L66.56,116.5L68.33,156.42L68.52,155.34L68.54,155.11L68.76,153.41L69.05,158.44L69.07,158.88L69.71,173.96L69.95,166.01L69.97,164.78L71.23,126.24L71.25,125.67L71.54,120.59L72.08,123.28L72.1,122.92L72.78,116.34L72.99,119.85L73.01,120.77L74.93,171.23L74.97,171.09L74.99,171.01L76.23,150.6L76.25,150.05L76.93,129.36L77.46,131.53L77.49,131.78L77.68,129.84L77.7,129.16L78.29,109.51L78.66,118.07L78.68,118.92L80.21,158.98L80.59,155.77L80.62,155.68L80.91,158.78L80.93,159.4L81.57,169.2L81.83,165.9L81.85,165.18L83.7,117.51L83.92,119.12L83.94,119.4L84.34,118.08L84.47,118.75L84.49,118.99L85.02,126.79L85.04,127.66L86.45,156.09L86.47,156.34L87.09,171.08L87.47,164.71L87.49,164.02L88.98,129.57L89.41,133.25L89.43,133.32L89.98,115.74L90.01,114.9L90.26,109.51L90.67,118.11L90.69,118.87L92.48,165.65L92.86,162.39L92.88,162.27L92.94,162.02L93.2,163.99L93.22,164.38L93.39,165.43L93.71,161.58L93.73,160.97L95.82,114.23L95.92,115.07L95.95,115.06L97.16,132.4L97.18,132.82L98.97,172.52L99.2,168.51L99.23,167.57L102.14,114.49L102.19,114.52L102.21,114.85L102.63,125.43L102.65,126.11L104.55,172.71L104.87,167.74L104.89,167.17L106.46,140.68L106.49,140.43L107.76,109.51L108.06,116.96L108.08,117.89L109.11,134.62L109.13,134.93L110.6,170.04L110.62,170.89L110.83,173.96L111.15,168.18L111.17,167.4L113.21,119.37L113.24,118.74L113.56,113.71L113.94,119.31L113.96,119.82L116.64,172.71L116.96,166.38L116.98,165.74L118.58,138.65L118.6,138.51L119.75,109.51L120.07,114.84L120.09,115.25L121.97,159.67L121.99,160.04L122.58,169.99L122.97,166.15L122.99,165.63L123.44,156.78L123.46,156.35L125.46,114.6L125.82,118.49L125.84,118.99L127.84,150.79L127.86,151.49L128.12,160.44L128.14,161.5L128.59,173.96L128.99,166.81L129.01,166.04L131.36,118.5L131.38,117.94L131.8,109.49L132.17,115.52L132.19,116.22L134.21,166.08L134.55,164.58L134.57,164.3L134.61,164.25L135.1,165.52L135.32,164.81L135.34,164.38L135.76,152.22L135.79,151.39L137.36,117.05L137.51,117.47L137.53,117.35L137.68,117.79L138.11,116.12L138.13,116.21L138.15,115.81L138.26,115.35L138.72,125.04L138.75,125.96L140.45,171.65L140.47,171.94L140.66,173.96L141.09,170.24L141.11,170.38L141.13,169.92L141.7,158.14L141.73,157.16L142.9,121.61L143.32,121.98L143.34,121.97L144.13,114.17L144.37,116.68L144.39,116.99L146.88,168.93L146.9,169.17L147.03,169.83L147.33,166.52L147.35,165.97L149.22,114.47L149.75,116.42L149.77,116.29L150.2,113.12L150.41,115.6L150.44,116.16L151.33,146.48L151.35,147.16L152.1,170.55L152.59,165.97L152.61,165.61L152.76,165.08L153.08,166.63L153.1,166.77L153.18,167.06L153.42,165.41L153.44,164.8L155.72,116.04L155.93,116.15L155.95,116.37L155.97,116.08L156.44,119.66L156.46,120.14L157.12,136.51L157.14,137.55L158.89,173.96L158.93,173.74L158.95,173.28L160.21,144.58L160.23,144L161.81,110.25L161.83,110.44L162.12,113.44L162.15,114.41L162.47,125.93L162.49,126.99L164.51,169.03L164.53,168.73L164.55,168.93L164.98,166.18L165,165.79L165.94,151.89L165.96,151.34L166.87,123.46L166.89,122.74L167.7,114.97L168.02,116.8L168.04,117.22L168.94,128.12L168.96,128.9L170.64,173.96L170.96,170.42L170.98,169.56L171.39,156.47L171.41,155.87L173.69,113.44L173.92,115.68L173.94,115.77L176.6,173.79L176.63,173.82L176.88,170.09L176.9,169.53L178.26,147.27L178.29,146.71L179.61,110.47L179.95,114.12L179.97,114.99L180.27,123.8L180.29,124.52L182.57,170.53L182.78,168.81L182.8,168.62L185.25,119.18L185.27,118.62L185.63,114.45L185.95,118.26L185.97,118.57L188.72,173.96L189.06,167.78L189.08,167.38L190.93,126.07L190.96,126.04L191.76,112.47L192.08,116.46L192.11,117.08L193.66,149.04L193.68,149.99L194.47,166.99L194.79,165.52L194.81,165.53L195.19,165.97L195.68,160.13L195.7,159.31L195.92,152.81L195.94,151.57L197.62,113.86L198.07,116.47L198.09,116.53L198.15,116.78L198.47,115.05L198.49,114.94L198.54,114.86L198.94,125.76L198.96,126.63L200.3,167.69L200.32,168.09L200.75,173.96L201.09,169.45L201.11,169.12L203.8,116.58L203.82,116.3L204.22,111.79L204.54,116.49L204.56,117.11L206.5,168.51L206.69,167.54L206.71,167.2L206.86,166.74L207.16,168.56L207.18,168.71L207.42,170.34L207.71,165.88L207.73,164.88L208.29,142.33L208.31,141.66L209.57,112.87L209.71,113.95L209.74,113.8L210.61,117.5L210.63,117.74L211.03,129.24L211.06,130.15L211.97,162.73L212.33,160.67L212.36,160.74L212.38,160.51L212.76,164.33L212.78,165.08L213.21,170.3L213.53,165.82L213.55,165.17L214.57,135.07L214.59,134.16L215.19,119.83L215.59,123.97L215.61,124.16L215.63,124.31L215.91,121.71L215.93,120.75L216.42,109.51L216.74,116.71L216.76,117.54L218.36,167.34L218.38,167.42L218.44,167.66L218.89,165.48L218.98,165.75L219,165.81L219.53,170.9L219.74,167.75L219.77,166.89L221.77,118.43L221.79,118.37L222.13,116.8L222.51,118.36L222.53,118.72L223.02,122.36L223.04,123.35L223.51,145.65L223.53,146.82L224.11,165.12L224.56,161.3L224.58,161.22L225.24,172.46L225.49,168.58L225.51,168.18L227.28,115.36L227.81,117.85L227.84,117.78L228.41,109.51L228.69,113.5L228.71,114.27L230.69,171.37L231.05,169.28L231.07,169.28L232.46,142.59L232.48,141.83L233.95,111.63L234.07,111.85L234.1,112.37L234.12,111.91L234.52,119.51L234.54,119.78L237.2,173.96L237.4,171.77L237.42,171.25L240.19,111.19L240.31,111.89L240.33,112.41L240.36,112.22L240.53,115.64L240.55,116.19L243.12,173.97L243.14,173.51L243.17,173.77L246.15,110.77L246.45,113.5L246.47,114.36L246.49,114.16L246.72,118.51L246.74,118.31L246.76,119.33L247.72,143.1L247.74,143.78L249.06,173.96L249.43,170.21L249.45,169.68L252.02,111.24L252.39,116.04L252.41,116.5L253.22,129.01L253.24,130.02L253.6,141.02L253.62,142.06L254.3,153.36L254.32,154.01L254.75,165.05L254.77,165.76L255.22,173.96L255.56,167.78L255.58,167.22L258.18,109.51L258.2,109.72L258.26,109.57L258.37,110.85L258.39,110.78L258.41,111.4L259.09,130.51L259.11,131.31L261.12,171.27L261.5,168.18L261.52,167.73L264.08,115.23L264.5,116.95L264.52,117.05L265.01,120.26L265.03,120.91L265.27,127.42L265.29,127.76L266.87,165.3L266.89,165.98L267.38,173.96L267.74,170.11L267.76,169.8L270.53,109.51L270.63,109.84L270.66,110.02L271.08,121.03L271.1,121.73L272.98,165.92L273,166.01L273.57,173.96L273.85,170.92L273.87,169.98L276.55,113.8L276.57,113.92L276.87,111.4L277.19,116.29L277.21,117.17L277.92,143.86L277.94,145.07L278.96,169.09L279.3,167.78L279.32,167.74L279.47,167.49L279.75,168.98L279.77,168.86L279.79,169.32L279.9,169.49L280.56,153.62L280.58,152.4L281.98,119.05L282,119.31L282.77,114.4L282.94,115.15L282.96,115.83L282.98,115.53L283.35,121.13L283.37,121.51L285.65,173.96L285.67,173.62L285.69,173.88L286.03,168.53L286.05,167.98L288.22,115.8L288.24,115.88L288.26,115.49L288.71,111.46L289.05,114.43L289.07,115.21L289.37,122.93L289.39,123.75L289.86,138.76L289.88,139.9L290.44,156.5L290.46,157.25L291.39,167.31L291.52,167.11L291.54,167.24L291.78,167.73L292.03,166.62L292.05,166.22L292.65,155.44L292.67,154.5L294.18,120.54L294.21,119.72L294.23,120.08L294.63,113.82L294.65,114.4L294.67,113.81L295.8,130.01L295.82,131.24L297.63,171.64L297.65,171.37L297.68,172.16L297.87,173.96L298.12,170.15L298.14,170.16L298.17,169.2L298.51,159.86L298.53,158.79L300.55,114.87L300.57,115.2L300.98,112.98L301.27,116.37L301.3,116.06L302.81,159.59L302.83,159.64L303.49,173.96L303.87,169.24L303.89,168.57L305.34,136.56L305.36,135.37L306.68,111.58L306.81,112.09L306.83,112.46L306.87,112.45L308.41,148.97L308.43,150.28L309.69,173.96L310,170.96L310.03,170.38L310.41,161.06L310.43,160.38L312.56,111.54L312.88,115.26L312.9,115.32L315.71,173.96L316.05,168.82L316.07,167.98L318.8,109.51L319.14,114.59L319.16,115.5L321.89,169.63L322.06,168.87L322.08,168.09L322.1,168.24L322.35,164.99L322.38,164.16L324.74,112.9L324.89,113.92L324.91,113.77L325.63,124.46L325.66,125.15L325.68,124.95L325.91,130.11L325.93,131.1L327.4,163.94L327.42,164.95L327.83,173.96L328.23,168.09L328.25,167.44L330.85,114.99L330.87,114.56L331.04,114.08L331.28,115.41L331.3,115.92L333.77,168.97L334.11,167.52L334.13,167.75L336.32,123.8L336.34,122.94L336.83,109.51L337.28,113.82L337.3,114.97L337.32,114.63L337.64,121.38L337.66,121.72L340.01,173.96L340.35,168.09L340.37,167.26L341.65,144.4L341.67,144.58L342.75,116.92L342.77,117.15L343.26,111.64L343.56,115.67L343.58,117.24L343.61,117.04L343.69,120.71L343.71,120.52L343.73,121.85L346.39,173.96L346.48,173.3L346.5,172.84L347.18,152.47L347.2,151.74L349.18,112.99L349.35,114.17L349.38,114.3L350.42,135.25L350.44,136.83L351.8,164.5L351.82,164.3L351.85,165.1L352.29,173.96L352.65,168.11L352.68,167.46L355.4,111.94L355.44,112.19L355.47,112.84L355.49,112.59L355.87,116.93L355.89,116.91L355.91,117.49L356.93,147.83L356.96,149.11L357.87,173.96L358.23,171.97L358.25,170.98L358.28,171.22L358.6,168.33L358.68,168.66L358.7,168.25L358.77,168.99L359.23,164.36L359.26,164.45L359.28,163.05L360.9,113.81L361.24,114.89L361.26,114.89L361.64,115.56L361.85,114.33L361.98,115.16L362,114.66L364.26,169.8L364.34,169.15L364.37,169.47L365.66,151.62L365.69,149.91L365.71,150.4L365.96,138.14L365.98,138.22L367.18,109.51L367.58,112.69L367.6,113.42L367.62,113.17L368.01,117.38L368.03,116.88L368.05,117.95L368.07,117.77L368.26,121.77L368.28,121.51L368.31,122.83L368.9,144.91L368.92,144.75L368.94,145.75L370.2,173.96L370.58,169.19L370.6,169.02L371.67,153.91L371.69,153.57L373.05,112.11L373.07,112.89L373.1,112.1L373.56,116.98L373.67,116.43L373.69,117.21L374.12,115.53L374.39,119.09L374.42,119.88L375.37,156.55L375.4,157.8L376.69,171.99L376.72,171.45L376.93,173.96L377.31,167.05L377.33,166.88L378.63,121.4L378.65,121.95L379.38,113.93L379.51,114.27L379.53,114.09L379.74,114.32L380.04,111.77L380.19,112.94L380.21,114.88L380.23,113.76L380.65,129.38L380.68,131.14L381.36,150.98L381.38,151.73L382.25,173.96L382.66,170.74L382.68,170.56L384.34,137.93L384.36,137.17L385.23,109.51L385.7,113.8L385.72,114.18L386.66,124.11L386.68,123.82L388.3,173.96L388.6,171.35L388.62,170.46L388.64,170.76L389.02,165.51L389.04,164.62L389.07,164.82L389.26,161.57L389.28,161.66L389.3,160.98L390.34,139.89L390.36,138.53L391.68,111.2L391.71,112.93L391.73,111.11L392.32,121.58L392.34,121.58L392.37,122.73L394.58,173.96L395.01,170.24L395.03,169.66L395.45,158.78L395.47,157.48L395.5,157.84L395.71,151.79L395.73,151.42L397.58,109.56L397.6,110.36L397.63,109.51L398.05,118.38L398.07,118.89L400.73,173.96L400.82,173.64L400.84,172.85L400.86,173.13L401.12,166.65L401.14,165.41L402.54,137.72L402.57,136.71L403.93,113.42L403.95,113.88L403.97,113.68L404.31,117.66L404.33,118.59L406.87,173.96L407.21,169.15L407.23,168.47L408.06,145.82L408.08,146.02L408.1,144.72L408.12,145.02L408.42,139.34L408.44,139.84L408.46,138.83L408.48,139.43L408.93,132.18L408.95,132.18L408.97,131.17L409.85,109.51L410.12,114.6L410.15,115.92L410.17,115.51L410.53,122.67L410.55,122.25L410.57,123.27L410.59,122.75L411.02,129.56L411.04,130.69L411.38,142.05L411.4,143.08L412.76,172.97L412.79,172.77L412.85,173.96L413.34,162.76L413.36,162.23L414.23,152.94L414.26,152.83L415.87,109.51L415.89,110.64L415.92,109.62L416.43,117.43L416.45,117.77L418.71,170.38L419.09,166.65L419.11,165.28L419.13,166.43L419.77,163.41L419.79,163.65L419.81,162.27L419.83,162.96L420.22,150.98L420.24,150.29L421.37,121.59L421.39,120.54L421.81,109.51L422.16,113.78L422.18,115.06L422.2,114.83L422.45,120.06L422.47,119.59L422.5,120.64L422.52,120.29L422.96,125.17L422.99,124.34L423.01,126.22L423.03,125.51L423.43,137.49L423.45,137.73L425.03,173.96L425.18,173.33L425.2,171.92L425.22,173.39L425.8,162.03L425.82,162.05L427.58,116.07L427.63,116.41L427.65,116.66L427.8,117.15L428.61,109.51L428.65,109.78L428.67,111.18L428.69,110.46L429.08,122.2L429.1,122.76L430.25,160.86L430.27,161.01L430.74,171.7L431.23,170.74L431.25,169.14L431.59,173.96L431.95,168.79L431.97,169.22L431.99,167.17L432.01,167.74L432.27,155.62L432.29,155.9L432.31,153L432.33,153.87L432.67,138L432.7,138.72L432.72,136.57L432.74,137.58L433.18,125.1L433.21,125.25L433.23,124.41L434.7,109.51L434.8,110.97L434.82,111.09L435.4,128.97L435.42,128.54L435.44,130.78L436.63,169.79L437.04,166.11L437.06,165.69L437.1,165.28L437.87,170.83L437.89,167.89L437.91,169.97L438.47,155.05L438.49,155.36L438.51,153.27L438.53,153.87L438.81,140.83L438.83,139.47L438.96,133.42L438.98,132.2L439.66,111.48L439.93,116.39L439.96,118.08L440.19,121.06L440.89,109.73L440.94,110.04L440.96,110.98L440.98,110.2L441.4,122.44L441.43,123.53L442.66,169.67L442.87,167.47L442.89,167L442.94,167.15L443.24,164.8L443.53,167L443.55,167.94L444,171.23L444.9,139.7L444.92,138.91L445.53,113.33L445.96,116.47L445.98,117.57L446.6,113.18L446.75,114.75L446.77,115.85L446.79,115.53L447.11,121.34L447.13,121.34L447.15,121.81L449.32,167.47L449.35,167.15L449.64,171.23L449.96,165.43L449.98,168.88L450.01,164.33L450.03,167.94L450.67,151.78L450.69,153.5L450.71,150.99L450.73,151.93L451.13,137.66L451.16,137.81L451.18,135.93L451.94,112.08L452.31,116.47L452.33,118.67L452.63,120.24L453.12,116.16L453.14,117.41L453.16,116L453.67,129.03L453.69,128.08L453.71,131.07L453.73,129.5L454.2,150.99L454.22,150.52L455.12,170.29L455.16,169.82L455.18,168.25L455.44,169.51L455.82,164.64L455.88,165.27L455.9,165.27L456.01,165.74L457.01,136.4L457.03,135.62L457.5,123.38L457.88,125.73L457.91,126.99L458.61,110.82L458.91,112.39L458.93,114.12L458.95,113.65L459.29,123.06L459.31,121.81L459.33,124.16L459.35,122.91L459.84,135.62L459.86,135.62L459.89,137.18L460.12,144.72L460.14,146.29L460.35,153.5L460.38,153.82L461.38,165.74L461.4,164.17L461.76,170.29L462.14,165.74L462.16,164.17L462.19,164.64L462.46,157.43L462.48,156.96L464.36,113.81L464.7,116.47L464.72,117.89L465.08,116.79L465.4,120.87L465.42,120.71L467.21,170.45L467.23,170.29L467.34,170.76L467.62,164.8L467.64,163.55L467.66,163.86L467.96,156.96L467.98,158.05L468,156.64L468.57,161.19L468.74,158.84L468.77,157.11L468.79,157.58L469.06,146.6L469.08,146.13L470.23,118.83L470.26,119.77L470.53,117.57L470.98,121.81L471,119.77L471.02,122.28L471.04,119.77L471.68,127.61L471.7,126.2L471.73,128.24L471.75,127.61L472.09,137.81L472.11,136.56L472.13,139.85L472.15,137.5L472.73,153.35L472.75,153.35L472.77,153.97L473.19,162.6L473.22,160.88L473.24,164.33L473.26,161.82L473.75,170.92L473.94,169.35L473.96,169.04L475.96,126.2L475.98,125.26L476.13,120.87L476.15,119.61L476.18,119.92L476.35,115.06L476.43,115.06L476.45,114.28L476.54,112.71L477.43,129.81L477.45,129.65L478.18,139.22L478.3,138.13L478.33,137.03L478.37,136.56L479.56,170.29L479.6,169.98L479.62,169.35L482.73,116L483.1,118.2L483.12,119.61L483.14,118.98L483.63,126.36L483.65,126.36L483.67,127.46L483.69,126.67L484.1,138.13L484.14,138.13L484.16,138.44L486.03,167.31L486.06,165.74L486.14,167.15L486.65,156.64L486.67,155.39L488.25,129.97L488.27,129.65L488.82,120.08L488.84,119.61L489.14,116.16L489.42,119.45L489.44,120.08L489.68,127.77L489.7,127.61L489.72,129.5L491.49,159.15L491.51,158.84L492.1,164.96L492.32,163.86L492.34,162.6L492.36,163.39L492.83,153.35L492.85,153.35L492.87,152.56L495.08,119.45L495.23,120.71L495.25,121.65L495.28,121.02L495.7,127.61L495.72,127.14L495.74,128.71L495.76,127.77L496.28,137.18L496.3,135.46L496.32,137.66L496.34,137.03L496.72,147.23L496.74,147.07L496.77,148.48L496.79,148.33L496.91,152.41L496.94,153.03L497.43,159.78L497.81,158.37L497.83,156.8L498,156.33L498.49,158.37L498.6,158.05L498.62,157.74L498.68,157.9L499.3,148.01L499.32,149.27L499.34,146.76L499.36,147.7L499.79,135.3L499.81,135.3L499.83,134.2L500.88,124.48L500.9,126.36L501.36,120.87L501.66,122.91L501.68,124.79L501.71,123.69L502.15,133.42L502.17,133.11L502.2,134.36L502.71,144.25L502.73,143.93L502.75,144.87L503.6,157.58L503.64,157.43L503.66,158.21L503.69,157.74L504.05,163.39L504.07,162.13L504.09,163.39L505.41,145.03L505.43,144.87L506.41,129.03L506.43,129.65L506.52,130.12L507.16,122.12L507.28,123.38L507.31,123.85L507.33,123.69L507.56,126.52L507.6,126.36L507.63,127.46L507.65,126.83L508.16,134.05L508.18,133.58L508.2,134.67L508.22,133.73L508.73,143.62L508.75,142.99L508.77,143.93L508.8,143.78L508.92,146.91L508.95,147.38L510.56,159.47L510.76,158.52L510.78,157.74L510.8,158.52L511.29,150.68L511.31,151.31L511.33,149.74L511.35,150.52L511.8,139.22L511.82,139.22L512.65,129.34L512.71,130.28L512.74,130.44L513.78,120.55L513.86,121.65L513.89,121.18L515.8,155.23L515.82,154.13L516.61,158.21L516.63,157.43L516.99,159.31L517.29,152.72L517.31,151.93L517.53,144.72L517.55,144.25L518.14,129.97L518.42,131.69L518.44,133.26L518.55,134.67L519.63,126.04L519.91,126.52L519.93,127.46L519.95,126.2L520.57,134.05L520.59,133.42L521.49,154.76L521.51,154.29L521.66,155.23L522.13,151.93L522.19,152.88L522.21,151.62L523.06,159.31L523.08,158.52L523.11,159.31L523.51,151.78L523.53,151.78L523.55,150.21L523.57,150.68L523.87,141.26L523.89,141.26L523.91,139.85L523.94,140.01L524.02,137.66L524.04,136.24L524.06,136.4L524.23,132.01L524.25,131.69L524.77,125.73L525.13,128.24L525.15,128.87L525.36,130.44L525.98,126.52L526,127.46L526.02,126.2L526.58,137.03L526.6,136.71L526.62,138.13L527.04,146.44L527.07,147.07L527.09,146.44L527.62,152.72L527.64,152.25L527.66,153.19L527.94,155.39L528.34,152.41L528.41,153.19L528.43,152.72L528.71,150.84L528.98,153.35L529,152.72L529.02,153.97L529.22,155.07L530.39,134.05L530.41,134.2L530.47,134.99L530.92,130.44L530.94,130.59L531,130.75L531.32,127.61L531.35,128.08L531.37,127.3L531.45,126.36L532.15,131.85L532.22,131.38L532.24,131.54L533.2,143.15L533.22,143.62L534.33,156.17L534.35,154.92L534.84,158.21L535.09,155.86L535.11,154.44L535.14,155.39L535.58,145.97L535.6,145.81L537.22,129.03L537.48,130.44L537.5,130.75L537.65,131.22L538.05,128.87L538.24,130.91L538.27,131.38L538.29,130.59L538.76,140.95L538.78,139.54L538.8,140.95L540.57,155.86L540.86,155.23L540.88,154.76L540.91,155.39L541.44,150.84L541.46,151.46L541.48,150.37L541.5,150.68L541.84,145.19L541.86,145.34L541.89,144.25L541.91,144.72L542.38,139.07L542.4,139.38L542.42,138.6L542.44,139.54L543.01,133.73L543.04,134.83L543.06,133.26L543.08,133.89L543.53,125.26L543.55,125.73L543.57,124.95L543.82,122.91L544.12,127.61L544.14,127.46L544.16,129.03L544.19,127.93L544.67,136.71L544.7,136.56L544.72,136.87L544.91,136.71L545.06,139.85L545.08,139.54L545.1,140.17L546.14,154.44L546.42,153.66L546.44,152.88L546.8,154.6L547.08,151.46L547.14,152.56L547.17,151.46L547.19,152.41L547.76,144.87L547.78,145.03L547.81,144.72L548,145.03L549.32,130.28L549.4,131.22L549.42,131.38L549.47,131.85L550.02,129.34L550.21,130.75L550.23,130.75L550.25,130.59L550.57,133.58L550.59,133.42L550.62,133.73L550.66,133.58L551.53,144.09L551.57,143.93L551.6,144.4L551.62,144.25L551.87,147.7L551.91,147.54L551.94,148.33L551.96,147.7L552.45,154.44L552.51,153.82L552.53,153.82L552.94,156.48L553.19,153.19L553.28,153.97L553.3,152.56L553.32,153.82L553.92,145.81L553.94,147.07L553.96,145.5L553.98,146.76L554.58,138.28L554.6,138.6L554.62,137.81L554.64,138.28L555.11,132.32L555.13,133.11L555.15,132.16L555.19,132.48L555.75,124L556.05,128.4L556.07,128.71L556.71,142.68L557.11,141.11L557.13,138.28L557.92,145.97L557.94,145.97L558.75,156.48L558.92,155.07L558.94,154.76L559.94,143.93L559.96,144.4L560.03,145.34L560.62,142.36L560.64,142.99L560.67,142.52L561.86,127.46L561.99,128.55L562.01,129.03L562.03,128.24L562.54,136.09L562.58,136.09L562.6,135.62L562.62,135.46L563.07,137.03L563.16,136.87L563.18,137.18L563.2,136.87L563.58,141.74L563.6,140.79L563.63,142.21L564.97,157.43L565.22,155.23L565.24,154.13L565.56,148.8L565.58,148.17L566.84,137.34L566.97,137.97L566.99,138.6L567.14,139.38L568.01,128.87L568.03,129.03L568.05,129.18L568.27,128.08L568.63,134.36L568.65,134.2L568.67,135.3L568.69,135.15L568.84,139.22L568.86,137.81L568.89,139.7L568.91,139.07L569.25,143.78L569.52,142.36L569.55,143.3L569.69,141.11L570.25,145.03L570.27,144.4L570.29,145.19L570.31,145.03L570.52,149.27L570.55,148.95L570.57,149.89L570.59,149.58L570.99,154.13L571.08,153.5L571.1,154.29L571.97,146.76L571.99,147.23L572.04,147.54L572.8,142.05L572.82,142.21L572.85,141.74L572.87,142.21L573.31,135.77L573.34,134.83L573.36,135.15L573.63,128.71L573.65,129.34L573.68,127.93L573.95,126.67L574.61,134.83L574.63,133.11L575.49,143.15L575.51,142.21L576.15,150.21L576.4,150.05L576.42,149.74L576.61,150.52L577,148.17L577.34,148.64L577.36,148.95L577.68,149.89L578.06,146.91L578.08,149.27L578.94,136.71L578.96,137.03L579.28,134.67L579.74,135.77L579.77,135.77L579.89,136.09L580.09,134.2L580.15,134.67L580.17,133.89L580.47,132.01L580.92,135.15L580.94,134.83L580.96,135.15L581,134.99L581.94,142.36L581.96,142.68L583.68,153.97L583.71,152.56L583.73,153.82L584.3,143.3L584.32,143.93L584.34,142.52L584.39,142.83L584.56,139.38L584.58,140.01L584.6,139.22L584.64,139.38L585.13,137.97L585.2,138.28L585.22,137.81L585.28,138.13L585.62,132.63L585.64,133.11L585.66,132.16L585.86,129.97L586.92,138.28L586.94,137.5L586.98,137.34L587.73,141.26L587.75,141.26L588.9,150.84L589.16,150.05L589.18,149.27L589.2,150.05L589.79,145.81L589.84,146.76L589.86,145.66L590.43,145.03L590.45,146.91L590.58,145.66L590.6,144.56L590.63,145.34L591.11,138.44L591.14,139.85L591.16,138.44L591.18,138.75L591.63,136.71L591.84,137.97L591.86,137.18L591.95,137.5L592.33,133.26L592.35,133.42L592.37,132.32L592.75,129.65L593.12,133.58L593.14,132.63L594.1,148.17L594.12,146.6L594.37,151.15L594.88,147.7L594.91,148.48L595.16,146.76L595.57,151.31L595.59,150.05L595.61,151.78L595.71,152.41L596.59,139.22L596.61,140.48L597.35,137.66L597.38,137.97L597.4,138.13L597.69,138.91L598.18,136.24L598.21,136.71L598.25,137.03L598.76,132.01L598.99,133.89L599.01,135.77L599.04,133.89L599.63,141.26L599.67,141.26L599.7,141.58L601.36,148.17L601.38,146.29L602.02,151.15L602.17,150.68L602.19,150.84L602.23,151.15L603.42,135.15L603.44,135.3L603.72,132.95L604.21,133.42L604.23,134.2L604.47,133.58L604.89,136.24L604.91,135.77L604.93,135.77L604.98,135.62L605.79,139.22L605.81,139.22L606.57,150.52L606.96,147.85L606.98,146.76L607.3,144.72L607.72,147.85L607.74,146.29L607.89,148.01L608.4,146.13L608.47,146.44L608.49,146.13L608.53,146.6L609.51,135.93L609.77,136.56L609.79,137.66L609.81,136.4L609.96,138.44L610.53,137.66L610.56,137.03L610.64,137.5L611.19,135.77L611.24,136.4L611.26,135.46L611.51,134.67L612.11,140.01L612.13,139.7L612.2,139.22L612.51,144.25L612.56,143.93L612.58,144.56L612.6,144.09L613.05,149.74L613.07,149.27L613.09,150.37L613.37,152.09L613.81,149.42L613.83,149.74L613.86,149.89L614.73,142.99L614.75,143.93L614.79,144.25L615.54,137.81L615.56,139.54L616.26,132.63L616.37,132.79L616.39,132.63L617.37,141.26L617.39,139.7L617.73,138.44L618.09,141.26L618.14,140.95L618.16,140.95L619.14,147.54L619.26,147.38L619.29,146.44L619.31,147.54L619.9,145.19L620.01,145.97L620.03,145.81L620.48,145.97L620.5,144.56L620.65,145.19L620.67,144.72L620.71,145.19L621.22,142.83L621.27,143.3L621.29,143.15L621.33,143.46L621.69,141.11L621.76,142.05L621.78,140.79L621.8,141.26L622.25,134.99L622.27,135.62L622.29,134.83L622.78,131.69L623.1,133.73L623.12,134.2L623.14,134.05L623.42,136.87L623.46,136.56L623.48,137.81L623.5,136.4L624.12,142.52L624.14,142.05L624.16,142.99L624.18,142.68L624.74,145.5L624.76,145.66L624.78,144.72L625.35,148.95L625.44,148.95L625.46,148.8L625.59,148.95L625.74,148.17L625.76,148.48L625.78,147.7L625.8,148.48L626.38,145.34L626.46,145.34L626.48,144.87L626.5,145.19L626.97,141.58L627.01,141.58L627.04,141.58L627.89,138.6L627.91,139.07L628.42,135.46L628.72,135.93L628.74,137.03L628.76,135.93L629.4,139.7L629.44,139.7L629.46,139.38L629.91,140.95L630.25,140.17L630.27,140.17L630.42,139.07L630.87,142.52L630.89,142.36L630.91,143.15L630.93,142.83L631.34,147.38L631.42,146.76L631.44,147.85L631.47,146.13L632.15,148.8L632.17,147.54L632.19,148.33L632.4,148.8L633.19,142.68L633.21,144.25L634.04,135.77L634.06,137.18L634.51,132.79L634.83,134.83L634.85,134.99L634.89,134.83L635.89,140.48L635.92,139.54L636.75,143.62L636.77,143.3L637.58,149.58L637.9,147.7L637.92,147.23L638.7,140.79L639.17,141.89L639.19,143.15L639.68,144.4L640,140.64L640.02,141.74L640.88,135.3L640.9,136.24L641,135.3L641.41,138.13L641.47,137.97L641.49,138.91L641.86,139.54L642.26,137.5L642.28,137.66L642.43,137.18L643.5,150.52L643.94,148.48L643.96,148.17L644.2,148.8L644.56,145.81L644.58,145.81L644.62,146.13L645.33,140.32L645.45,140.95L645.48,140.64L645.65,141.74L646.14,139.38L646.16,138.6L646.18,139.85L646.8,134.83L646.84,135.15L646.86,135.46L646.92,134.36L647.48,139.38L647.5,138.6L647.52,139.22L647.54,139.07L647.88,141.74L647.9,141.42L647.92,142.05L647.99,141.89L648.24,142.99L648.41,142.21L648.44,143.46L648.78,143.62L649.18,141.42L649.2,142.99L649.22,140.95L649.88,145.97L649.9,145.81L649.93,145.97L650.18,148.01L650.65,145.03L650.67,145.66L650.69,143.93L650.71,145.81L650.99,142.36L651.44,144.09L651.46,143.93L651.48,144.4L651.97,140.64L652.06,141.74L652.08,140.01L652.1,141.42L652.72,135.46L652.76,135.77L652.78,136.24L652.84,136.71L653.1,133.89L653.52,136.24L653.55,135.77L654.33,141.26L654.38,141.11L654.4,140.79L654.42,140.64L654.84,143.15L654.87,142.83L654.89,143.93L654.91,143.3L655.44,147.23L655.55,146.76L655.57,147.07L655.99,144.56L656.42,145.34L656.44,145.5L656.85,146.29L656.95,144.87L657.04,145.66L657.06,144.09L657.08,145.19L657.63,138.6L657.7,139.22L657.72,138.28L657.76,137.66L658.4,139.54L658.49,139.07L658.51,139.38L658.72,138.44L659.15,140.79L659.21,140.01L659.23,140.48L659.4,140.95L660.23,136.56L660.25,137.66L660.3,136.87L660.72,141.74L660.74,140.95L660.76,142.99L660.79,140.95L661.21,144.4L661.49,142.52L661.51,143.62L661.53,142.52L662.19,147.38L662.21,145.97L662.23,147.38L662.4,148.01L662.98,146.13L663,146.76L663.92,139.54L663.94,139.85L664.77,137.03L664.79,137.81L665.21,135.93L665.53,136.87L665.56,137.97L665.58,137.34L666.07,141.42L666.19,140.32L666.22,141.26L666.24,140.01L666.81,143.15L666.92,142.21L666.94,143.15L666.96,142.52L667.56,146.91L667.58,145.97L667.6,146.76L667.68,147.23L668.52,142.05L668.54,142.68L668.62,142.05L669.15,143.78L669.18,143.15L669.2,144.4L669.54,144.56L669.94,142.36L669.98,142.52L670.01,142.68L670.92,137.34L671.01,138.13L671.03,138.6L671.09,137.66L671.6,139.85L671.77,138.13L671.79,138.28L671.82,138.44L672.13,136.09L672.18,136.4L672.2,135.93L673.18,145.66L673.33,145.19L673.35,145.03L673.6,145.34L673.63,144.25L674.07,145.03L674.09,144.87L674.16,144.56L674.92,146.76L674.95,146.29L674.97,146.29L675.09,146.91L675.48,142.83L675.5,142.83L676.22,137.97L676.37,138.6L676.39,138.75L676.44,138.28L676.61,140.48L677.14,138.91L677.16,139.22L677.54,137.66L677.91,138.6L677.93,139.54L677.95,138.28L678.48,142.36L678.61,141.89L678.63,142.83L678.99,141.89L679.01,143.78L679.37,142.36L679.4,142.05L679.44,141.74L680.14,143.62L680.16,142.36L680.93,146.29L680.97,145.66L680.99,146.44L681.21,146.91L681.78,143.15L681.8,143.62L682.61,139.38L682.63,139.38L682.67,139.54L683.27,137.34L683.38,137.5L683.4,139.07L683.78,139.54L684.06,136.71L684.14,137.66L684.17,137.66L684.31,137.03L685.46,146.6L685.49,146.29L685.68,147.7L686.17,144.72L686.19,144.25L686.21,144.72L686.53,142.21L686.89,143.93L686.91,143.3L687.36,145.5L687.64,142.68L687.66,142.99L688.32,138.13L688.55,138.44L688.57,139.07L688.66,138.75L689.13,141.26L689.15,140.48L689.17,141.89L689.36,142.36L689.94,139.54L689.96,140.17L690.36,137.81L690.74,139.22L690.77,139.38L690.81,139.07L691.75,143.3L691.77,143.15L692.62,146.13L692.64,145.66L692.96,146.44L693.21,144.25L693.3,145.19L693.32,144.09L693.73,145.03L693.75,142.36L694.02,142.68L694.05,142.68L694.07,142.99L694.54,139.22L694.56,140.95L694.58,138.91L694.6,140.64L695.28,136.4L695.3,137.03L695.32,135.93L696.13,141.26L696.15,141.11L696.52,142.52L696.83,141.26L696.86,140.79L696.96,139.7L697.71,144.87L697.73,144.25L698.07,145.81L698.37,142.99L698.45,143.93L698.47,143.3L698.64,143.93L698.67,142.21L699.07,142.68L699.09,141.89L699.48,141.42L699.79,143.62L699.86,143.15L699.88,142.99L700.41,144.56L700.56,142.21L700.6,142.52L700.62,142.36L701.52,138.28L701.69,138.44L701.71,139.07L702.26,139.22L702.29,137.66L702.46,138.91L702.48,138.75L702.58,138.44L702.86,141.11L702.97,140.48L702.99,140.79L703.01,140.17L703.61,143.62L703.63,141.89L703.65,143.93L703.67,142.05L704.31,145.81L704.39,144.87L704.42,145.66L704.48,144.87L704.69,146.44L705.18,145.03L705.2,145.34L706.4,139.7L706.54,140.17L706.57,140.48L706.69,141.26L707.42,138.91L707.44,138.91L707.74,137.5L707.99,139.54L708.01,138.91L708.03,140.32L708.06,138.6L708.52,142.99L708.74,142.05L708.76,142.21L708.89,142.68L709.33,140.79L709.53,141.26L709.55,141.74L709.74,140.95L710.21,142.99L710.23,141.26L710.25,142.99L710.27,141.89L710.8,144.72L710.97,144.25L710.99,144.56L711.1,144.87L711.57,143.46L711.8,143.93L711.82,143.93L712.1,144.4L713.61,137.5L713.63,138.75L713.66,137.66L714.32,139.7L714.36,139.38L714.38,139.38L714.49,138.28L715,141.11L715.08,140.48L715.1,140.95L715.13,140.48L715.66,143.78L715.68,143.78L715.7,143.62L716.04,145.34L716.28,144.56L716.3,145.19L717.11,142.52L717.13,143.46L717.89,141.58L717.91,142.36L718.6,140.48L718.7,140.79L718.72,142.21L718.77,142.52L719.45,139.85L719.49,140.17L719.51,140.17L719.66,139.38L720.17,141.89L720.19,139.54L720.45,141.89L720.87,139.38L720.94,140.17L720.96,139.7L721.09,139.38L721.92,141.74L721.94,140.79L722.75,145.5L722.77,145.03L722.9,146.6L723.43,143.78L723.47,143.93L723.49,143.93L723.51,144.09L723.96,142.52L724.05,142.52L724.07,142.36L724.13,142.99L724.75,141.11L724.77,141.89L724.79,140.79L724.81,141.74L725.45,138.6L725.47,138.91L725.5,138.6L725.67,137.66L726.45,140.79L726.47,140.01L727.28,142.99L727.3,141.89L727.33,143.15L727.75,141.58L728.05,142.52L728.07,142.52L728.77,143.78L728.8,142.05L728.82,143.62L728.84,142.52L729.11,142.21L729.58,143.15L729.6,142.36L729.63,143.46L730.2,141.26L730.33,142.36L730.35,141.42L731.12,143.46L731.14,142.36L731.16,142.99L731.76,139.07L731.78,141.11L731.8,138.6L731.82,140.79L732.44,138.28L732.54,138.6L732.56,138.44L732.71,138.13L733.65,142.68L733.67,142.05L734.46,143.78L734.48,142.68L735.16,145.03L735.25,144.4L735.27,145.34L735.31,145.66L736.06,142.52L736.08,142.21L736.1,142.52L736.46,139.7L736.67,139.85L736.7,140.17L737.27,138.91L737.29,140.48L737.44,139.22L737.46,140.48L737.48,139.7L738.16,142.21L738.19,140.79L738.21,142.05L738.78,139.85L738.97,140.48L738.99,140.64L739.17,140.32L739.83,142.21L739.85,141.74L740.32,142.83L740.53,141.26L740.61,142.21L740.63,140.95L740.78,140.32L741.44,143.62L741.46,143.78L742.04,145.81L742.23,144.72L742.25,144.09L742.27,144.25L742.61,141.89L742.64,142.83L742.66,140.95L742.68,142.99L743.36,139.7L743.4,140.01L743.42,140.01L743.98,140.32L744,138.75L744.21,139.7L744.23,139.85L744.3,138.75L744.32,140.64L744.96,139.38L744.98,140.01L745.11,139.54L745.53,141.58L745.55,141.11L745.57,141.58L745.62,141.42L745.79,142.83L745.85,142.68L745.87,143.15L745.94,142.83L746.4,145.03L746.53,143.93L746.55,144.56L747.36,142.21L747.38,142.52L747.41,142.68L747.45,142.83L748.13,140.79L748.17,141.26L748.19,142.05L748.32,141.11L748.34,142.52L748.96,141.74L748.98,141.58L749,141.74L749.43,140.32L749.62,140.95L749.64,140.48L750.11,142.36L750.41,141.89L750.43,141.11L750.58,141.74L751.11,139.07L751.13,140.17L751.15,139.22L751.34,138.91L751.98,141.58L752,140.79L752.81,143.78L752.84,142.99L753.07,142.52L753.5,144.09L753.6,143.78L753.62,143.46L754.01,144.4L754.35,142.99L754.37,143.46L754.39,142.83L754.47,143.3L755.01,140.48L755.03,140.64L755.05,140.64L755.35,140.95L755.77,139.7L755.8,140.95L756.39,139.38L756.56,140.17L756.58,139.54L757.29,142.36L757.39,142.21L757.41,141.58L757.92,144.09L758.18,142.99L758.2,143.3L758.24,143.46L758.88,140.64L759.05,140.95L759.07,141.74L759.12,141.11L759.63,143.3L759.73,142.36L759.76,143.46L760.37,142.21L760.52,142.68L760.54,142.21L761.01,141.42L761.03,143.46L761.29,142.68L761.31,142.05L761.33,142.68L761.99,140.17L762.01,140.95L762.03,140.17L762.35,140.95L762.69,139.22L762.72,140.79L762.74,139.07L762.76,140.48L763.5,139.85L763.52,140.17L763.69,139.7L763.93,141.89L763.95,141.11L763.97,142.05L764.14,141.26L764.57,143.78L764.65,143.62L764.67,143.46L764.8,142.52L764.82,144.56L765.19,143.78L765.21,142.83L765.63,143.93L765.65,141.89L765.95,143.3L765.97,143.15L766.19,144.09L766.61,142.52L766.63,142.68L766.65,142.21L766.68,142.52L767.06,139.22L767.12,140.17L767.14,139.38L767.48,138.75L768.02,141.89L768.04,140.64L768.66,142.68L768.78,142.52L768.81,141.58L768.89,142.05L769.44,140.01L769.47,141.11L769.49,139.85L769.57,139.7L770.21,142.05L770.27,141.74L770.3,142.05L770.53,142.36L770.91,141.11L771.08,141.42L771.1,141.89L771.15,141.42L771.49,143.3L771.51,141.74L771.53,143.78L771.55,141.89L772.25,144.25L772.28,143.15L772.3,143.78L772.85,141.89L773.11,142.21L773.13,142.21L773.17,142.36L774.06,139.07L774.17,139.38L774.19,139.85L774.43,138.75L774.72,140.64L774.92,140.32L774.94,140.32L774.98,140.17L775.73,142.05L775.75,140.79L776.53,143.15L776.56,142.36L777.3,144.56L777.39,144.09L777.41,143.93L778.09,140.32L778.37,140.64L778.39,140.95L778.41,140.64L778.96,142.52L779.05,141.89L779.07,142.36L779.35,141.26L779.37,143.46L779.81,141.42L779.83,142.36L780.67,140.32L780.69,141.42L780.71,140.17L781.43,140.48L781.45,140.95L781.94,139.7L781.96,141.26L782.16,140.64L782.18,141.26L782.24,140.32L782.86,142.52L782.9,142.21L782.92,142.83L783.14,143.3L783.16,141.42L783.65,143.15L783.67,143.46L783.97,144.87L783.99,142.99L784.41,143.15L784.43,143.46L785.31,140.95L785.39,141.26L785.41,141.26L785.67,141.74L785.97,140.32L786.07,140.95L786.09,139.85L786.12,141.42L786.65,138.75L786.84,140.01L786.86,139.85L786.97,139.54L787.82,143.3L787.84,143.46L788.12,144.09L788.74,140.32L788.76,141.11L789.14,140.01L789.16,142.21L789.46,141.89L789.48,142.36L789.78,143.15L790.03,142.05L790.2,142.21L790.23,142.68L790.29,142.99L790.31,141.74L790.99,142.52L791.01,142.36L791.4,141.42L791.42,143.46L791.76,142.36L791.78,142.05L791.84,142.36L792.36,140.17L792.4,140.79L792.42,140.17L792.53,139.7L792.55,141.11L793.16,140.95L793.19,140.32L793.91,139.85L793.93,141.26L793.95,140.32L794.74,143.3L794.78,143.15L794.8,142.52L795.27,143.78L795.57,143.46L795.59,142.68L795.87,142.21L795.89,143.78L796.32,143.15L796.34,142.52L796.44,142.83L797,141.11L797.02,141.58L797.04,140.64L797.59,139.85L797.61,141.74L797.78,140.32L797.81,140.95L797.85,140.32L798.66,142.36L798.68,141.74L798.79,142.83L799.32,140.95L799.42,141.42L799.45,141.11L799.53,140.64L799.74,141.74L800.19,141.58L800.21,141.11L800.85,140.79L800.87,142.05L800.98,141.58L801,141.42L801.87,143.15L801.94,142.99L801.96,142.99L802.04,143.46L802.81,142.05L802.83,142.21L803.21,143.15L803.24,141.11L803.51,142.52L803.53,142.83L803.58,143.46L804.34,140.64L804.36,140.64L805,139.07L805.13,139.85L805.15,140.48L805.17,139.85L805.77,142.21L805.85,141.89L805.88,141.74L806.66,142.68L806.69,141.89L807.2,143.62L807.45,142.83L807.47,142.68L807.77,141.89L807.79,142.83L808.01,142.21L808.03,141.74L808.05,142.52L808.32,141.11L808.75,141.42L808.77,141.26L808.81,141.11L809.47,142.83L809.56,142.36L809.58,141.74L809.6,142.68L809.62,141.58L810.33,141.74L810.35,141.89L810.41,142.52L810.94,140.79L810.97,141.58L810.99,141.11L811.31,140.32L811.33,141.42L811.54,141.11L811.56,140.32L812.33,141.58L812.35,141.26L812.41,140.95L813.03,142.21L813.09,141.89L813.12,141.26L813.39,140.79L813.9,142.68L813.92,142.52L814.22,144.25L814.73,143.62L814.76,142.99L814.86,143.46L815.33,141.11L815.37,141.42L815.39,140.95L815.42,141.58L815.93,140.17L816.14,140.95L816.16,140.64L816.37,139.85L816.59,141.89L816.93,141.58L816.95,140.95L817.05,140.79L817.69,141.74L817.72,141.58L817.74,141.58L817.78,141.11L818.5,142.68L818.52,141.42L818.55,142.68L819.18,141.11L819.27,141.42L819.29,141.74L819.63,142.21L819.65,140.95L820.04,141.74L820.06,141.89L820.12,141.42L820.7,143.15L820.72,141.89L820.74,143.3L821.48,141.74L821.51,142.68L822.27,141.26L822.29,141.74L822.31,141.58L822.36,142.05L822.89,140.95L823.06,141.11L823.08,141.42L823.98,139.85L824.06,140.01L824.08,140.64L824.15,139.85L824.7,142.21L824.78,142.05L824.81,142.21L824.85,142.05L825.32,143.62L825.61,143.15L825.64,142.68L826.19,141.42L826.21,143.3L826.23,141.26L826.25,142.99L826.98,141.58L827,142.21L827.28,142.36L827.74,141.11L827.77,141.58L827.79,141.11L828,140.79L828.47,141.89L828.6,141.74L828.62,141.26L829.02,141.11L829.04,142.52L829.38,141.89L829.4,141.74L829.6,142.52L829.62,140.95L830.04,141.74L830.07,140.79L830.53,140.64L830.6,141.89L830.83,141.74L830.85,141.26L831.11,140.48L831.13,142.83L831.64,142.36L831.66,141.58L831.75,141.42L832.17,142.52L832.41,142.21L832.43,142.05L832.6,141.58L833.11,143.15L833.26,142.68L833.28,142.68L833.34,142.99L833.81,141.89L833.9,142.52L833.92,141.74L834.05,142.36L834.6,140.17L834.62,141.11L834.64,140.48L835.22,139.7L835.24,141.42L835.45,140.95L835.47,140.64L835.52,140.48L836.13,142.21L836.24,141.89L836.26,141.42L836.86,143.15L837.05,142.83L837.07,142.21L837.13,142.83L837.79,141.58L837.82,142.05L837.99,142.52L838.31,141.11L838.58,141.26L838.6,142.52L838.65,142.68L838.67,140.95L839.35,142.05L839.37,141.58L839.8,141.26L840.12,142.36L840.14,141.42L840.67,142.68L840.69,141.26L840.9,141.89L840.92,141.74L841.07,142.36L841.41,140.79L841.58,141.26L841.61,141.11L841.65,140.64L842.31,141.89L842.35,141.74L842.37,140.64L842.41,140.32L843.14,142.21L843.16,140.95L843.93,142.83L843.95,141.89L844.54,143.15L844.71,142.52L844.74,142.83L844.88,143.46L845.61,141.42L845.63,141.89L846.1,140.64L846.4,141.11L846.42,140.95L846.57,140.64L847.04,141.58L847.06,140.95L847.08,141.89L847.1,141.11L847.27,142.36L847.82,142.05L847.84,141.58L848.02,142.36L848.14,140.79L848.57,141.74L848.59,141.26L848.63,141.11L849.23,142.52L849.34,142.05L849.36,141.89L849.95,142.99L849.97,140.48L850.1,141.58L850.12,141.89L850.48,140.79L850.51,142.68L850.85,141.74L850.87,142.05L851,141.42L851.23,142.68L851.59,142.05L851.61,142.68L851.95,142.99L851.98,141.42L852.36,141.89L852.38,142.52L853.06,140.79L853.15,141.26L853.17,141.42L853.23,141.58L853.7,140.48L853.83,140.95L853.85,140.64L854.15,140.32L854.62,141.74L854.64,141.11L855.04,140.79L855.36,142.36L855.4,142.21L855.42,141.74L855.91,143.15L856.19,142.52L856.21,142.36L856.36,143.15L856.77,141.42L856.94,141.89L856.96,141.58L857.32,141.89L857.34,140.64L857.68,141.58L857.7,141.26L857.85,141.11L858.32,142.52L858.47,142.05L858.49,141.74L858.96,140.64L859.11,142.05L859.13,140.64L859.9,142.21L859.92,141.74L860.07,141.26L860.32,142.52L860.62,142.21L860.64,141.11L860.71,142.36L861.26,140.32L861.37,141.58L861.39,140.95L861.43,140.64L862.13,142.52L862.15,141.26L862.69,142.83L862.92,142.21L862.94,142.68L863.45,142.99L863.52,141.42L863.69,142.21L863.71,142.21L863.75,142.52L864.41,140.95L864.47,141.42L864.5,141.89L864.79,142.52L864.82,140.48L865.26,140.79L865.28,141.58L865.54,140.48L866.03,141.11L866.05,140.95L866.09,140.79L866.73,142.99L866.84,142.52L866.86,142.21L866.92,143.15L867.5,140.95L867.56,142.68L867.58,140.95L867.67,140.64L867.69,142.68L868.33,141.74L868.35,141.89L868.43,141.26L868.69,142.83L868.99,141.89L869.01,142.68L869.78,141.11L869.8,141.42L869.97,140.95L870.31,142.52L870.44,141.89L870.46,142.36L870.9,141.42L870.93,142.83L871.2,141.58L871.22,142.36L871.82,140.95L871.99,141.26L872.01,141.74L872.05,142.05L872.08,140.79L872.76,141.74L872.78,141.11L873.18,140.95L873.52,142.05L873.59,141.74L873.61,141.42L873.84,141.26L874.38,142.99L874.4,141.89L874.67,141.58L874.7,142.99L875.14,142.36L875.16,142.05L875.46,141.58L875.55,142.68L875.57,141.11L875.7,142.68L876.27,140.79L876.33,142.05L876.36,140.95L876.76,140.48L877.04,142.21L877.1,141.58L877.12,141.11L877.87,142.36L877.89,141.11L878.36,140.95L878.38,142.36L878.63,141.74L878.66,141.74L879.08,142.36L879.1,141.26L879.36,141.58L879.38,142.36L879.42,142.68L880.12,141.26L880.15,141.89L880.42,140.95L880.87,142.36L880.89,141.26L880.91,142.21L881.55,142.83L881.57,141.11L881.66,142.05L881.68,141.58L881.76,142.52L881.79,141.42L882.42,141.74L882.45,142.21L882.62,142.52L883.21,141.26L883.23,142.21L883.94,140.48L884,141.11L884.02,141.11L884.15,140.48L884.75,142.36L884.77,140.79L884.81,140.64L884.83,142.68L885.51,142.36L885.53,141.11L886.04,142.52L886.28,142.21L886.3,141.89L886.64,141.26L886.66,143.3L887.05,142.21L887.07,141.74L887.17,142.36L887.75,140.79L887.77,142.21L887.79,140.95L888.34,142.21L888.56,142.05L888.58,141.74L889.2,140.95L889.22,142.21L889.3,141.74L889.32,141.58L889.6,142.21L889.62,141.26L890.03,141.74L890.05,142.05L890.71,141.11L890.79,141.42L890.81,141.89L890.86,142.36L890.88,140.95L891.54,141.11L891.56,142.21L891.58,141.11L892.3,141.42L892.33,141.89L892.39,142.52L892.41,140.64L892.96,141.89L892.99,142.05L893.5,143.3L893.52,141.26L893.69,141.74L893.71,142.68L893.75,142.83L894.43,141.11L894.48,141.42L894.5,141.58L894.6,140.95L894.63,142.21L895.22,141.89L895.24,141.11L895.5,140.79L895.52,142.36L895.99,141.26L896.01,141.58L896.44,142.05L896.46,140.95L896.69,141.11L896.71,142.21L897.44,142.68L897.46,141.11L897.48,142.83L898.25,141.42L898.27,141.89L898.52,142.36L898.54,140.95L899.03,141.42L899.05,142.21L899.27,142.52L899.65,140.95L899.8,141.26L899.82,142.21L900.4,142.52L900.42,141.26L900.57,142.21L900.59,141.42L900.89,141.26L901.08,142.36L901.35,141.89L901.38,141.42L901.97,142.36L901.99,141.26L902.14,141.74L902.16,141.89L902.63,142.36L902.7,140.64L902.99,141.11L903.01,141.89L903.59,142.36L903.61,140.79L903.76,141.89L903.78,141.42L903.99,141.26L904.44,142.52L904.55,141.89L904.57,142.05L904.74,142.36L905.19,141.26L905.38,141.42L905.4,142.36L905.44,142.52L905.51,141.11L906.14,141.74L906.17,141.89L906.29,141.11L906.32,142.52L906.87,142.05L906.89,140.79L906.91,142.21L907.64,141.42L907.66,142.05L907.68,141.11L907.7,142.21L908.4,141.26L908.42,142.36L909.15,141.42L909.17,141.89L909.19,141.74L909.51,142.21L909.72,141.26L909.94,141.74L909.96,141.58L910.55,141.11L910.57,142.36L910.7,141.42L910.72,141.74L910.85,141.11L911.36,142.36L911.45,141.42L911.47,142.05L911.98,142.36L912.21,141.26L912.23,142.52L912.75,141.42L912.98,141.89L913,141.89L913.09,142.52L913.11,141.26L913.77,141.58L913.79,141.58L914.04,142.36L914.07,140.64L914.28,141.11L914.3,142.21L914.96,141.11L915.05,141.42L915.07,142.05L915.3,142.36L915.32,141.11L915.81,141.89L915.83,141.74L915.92,142.36L915.94,141.26L916.51,141.58L916.54,142.36L916.9,142.68L916.92,140.95L917.3,141.42L917.32,142.21L917.73,141.26L918.07,141.74L918.09,141.74L918.43,142.21L918.45,141.26L918.84,141.58L918.86,141.89L919.18,142.05L919.6,141.42L919.62,141.89L920.03,142.36L920.24,141.11L920.37,141.58L920.39,141.89L920.62,142.36L920.65,140.95L921.11,141.26L921.14,142.21L921.67,142.52L921.69,140.79L921.9,141.58L921.92,141.42L922.5,141.11L922.52,142.21L922.67,141.89L922.69,141.26L922.73,140.95L923.03,142.36L923.43,142.05L923.46,141.74L923.71,141.42L924.2,142.21L924.22,141.42L924.84,141.11L924.86,142.36L924.95,141.89L924.97,141.26L925.01,140.64L925.03,142.52L925.73,141.89L925.76,141.58L926.08,142.36L926.1,140.95L926.5,141.89L926.52,141.42L926.71,141.26L927.29,142.05L927.31,141.58L927.63,141.11L927.65,142.36L928.08,141.74L928.1,141.74L928.27,141.11L928.5,142.36L928.8,141.89L928.82,141.42L929.21,140.95L929.23,142.36L929.57,141.58L929.59,141.89L930.01,142.21L930.33,141.26L930.36,142.21L930.4,142.36L930.42,141.11L931.1,141.58L931.12,141.89L931.5,142.36L931.78,141.11L931.89,141.42L931.91,142.05L932.25,142.83L932.63,140.79L932.65,142.52L933.27,140.95L933.42,141.42L933.44,141.74L933.55,141.11L933.74,142.21L934.15,141.74L934.17,141.58L934.89,141.11L934.91,142.52L934.93,140.95L934.98,140.79L935,142.68L935.68,142.05L935.7,141.42L935.93,141.26L936.23,142.21L936.47,141.89L936.49,141.58L936.68,141.11L937.15,142.36L937.25,141.74L937.28,141.58L937.53,140.95L937.91,142.52L938.02,141.89L938.04,141.42L938.3,141.26L938.32,142.36L938.79,141.74L938.81,141.58L938.91,141.26L938.94,142.21L939,141.42"
                                  style="vector-effect: non-scaling-stroke; fill: none; stroke: rgb(0, 0, 0); stroke-opacity: 0.6; stroke-width: 1px; opacity: 1;"/>
                        </g>
                        <g class="points"/>
                        <g class="text"/>
                    </g>
                    <g class="trace scatter trace600ab4" style="stroke-miterlimit: 2; opacity: 1;">
                        <g class="fills"/>
                        <g class="errorbars"/>
                        <g class="lines">
                            <path class="js-line"
                                  d="M0,88.1L1.11,88.1L1.13,86.5L2.11,12.85L2.79,13.7L2.81,13.72L22.08,37.65L22.1,37.68L41.52,61.79L41.54,61.82L56.89,79.58L56.92,79.59L67.43,87.38L67.46,87.39L71.78,90.02L71.8,90.03L81.4,93.69L81.42,93.69L93.99,96.27L94.01,96.27L114.47,100.92L114.49,100.93L136.13,109.66L136.15,109.68L143.13,112.61L143.15,112.61L162.06,115.63L162.08,115.63L189.87,116.25L189.89,116.26L202.3,122.05L202.33,122.05L220.55,123.3L220.57,123.31L232.16,125.23L232.18,125.23L246.36,125.96L246.38,125.97L253.51,126.23L253.54,126.23L260.92,126.22L260.95,126.23L270.1,128.6L270.12,128.61L275.19,129.53L275.21,129.53L302.45,131.72L302.47,131.73L307.68,132.01L307.71,132.01L312.52,131.55L312.54,131.54L318.1,131.19L318.12,131.19L326.85,131.6L326.87,131.6L343.61,133.44L343.63,133.45L350.46,134.1L350.48,134.1L355.04,134.85L355.06,134.86L360.66,135.58L360.68,135.58L380.7,136.29L380.72,136.3L407.48,136.62L407.51,136.63L447.56,138.51L447.58,138.51L939,138.51"
                                  style="vector-effect: non-scaling-stroke; fill: none; stroke: rgb(0, 0, 255); stroke-opacity: 1; stroke-width: 2px; opacity: 1;"/>
                        </g>
                        <g class="points"/>
                        <g class="text"/>
                    </g>
                </g>
            </g>
            <g class="overplot"/>
            <path class="xlines-above crisp" d=""
                  style="fill: none; stroke-width: 1px; stroke: rgb(0, 0, 0); stroke-opacity: 0;"/>
            <path class="ylines-above crisp" d=""
                  style="fill: none; stroke-width: 1px; stroke: rgb(0, 0, 0); stroke-opacity: 0;"/>
            <g class="overlines-above"/>
            <g class="xaxislayer-above">
                <path class="xtick ticks crisp" d="M0,348v5" transform="translate(56,0)"
                      style="stroke: rgb(68, 68, 68); stroke-opacity: 1; stroke-width: 1px;"/>
                <path class="xtick ticks crisp" d="M0,348v5" transform="translate(162.45999999999998,0)"
                      style="stroke: rgb(68, 68, 68); stroke-opacity: 1; stroke-width: 1px;"/>
                <path class="xtick ticks crisp" d="M0,348v5" transform="translate(268.93,0)"
                      style="stroke: rgb(68, 68, 68); stroke-opacity: 1; stroke-width: 1px;"/>
                <path class="xtick ticks crisp" d="M0,348v5" transform="translate(375.39,0)"
                      style="stroke: rgb(68, 68, 68); stroke-opacity: 1; stroke-width: 1px;"/>
                <path class="xtick ticks crisp" d="M0,348v5" transform="translate(481.86,0)"
                      style="stroke: rgb(68, 68, 68); stroke-opacity: 1; stroke-width: 1px;"/>
                <path class="xtick ticks crisp" d="M0,348v5" transform="translate(588.32,0)"
                      style="stroke: rgb(68, 68, 68); stroke-opacity: 1; stroke-width: 1px;"/>
                <path class="xtick ticks crisp" d="M0,348v5" transform="translate(694.79,0)"
                      style="stroke: rgb(68, 68, 68); stroke-opacity: 1; stroke-width: 1px;"/>
                <path class="xtick ticks crisp" d="M0,348v5" transform="translate(801.25,0)"
                      style="stroke: rgb(68, 68, 68); stroke-opacity: 1; stroke-width: 1px;"/>
                <path class="xtick ticks crisp" d="M0,348v5" transform="translate(907.72,0)"
                      style="stroke: rgb(68, 68, 68); stroke-opacity: 1; stroke-width: 1px;"/>
                <g class="xtick">
                    <text text-anchor="middle" x="0" y="367.4" transform="translate(56,0)"
                          style="font-family: 'Open Sans', verdana, arial, sans-serif; font-size: 12px; fill: rgb(36, 36, 36); fill-opacity: 1; white-space: pre;">
                        0
                    </text>
                </g>
                <g class="xtick">
                    <text text-anchor="middle" x="0" y="367.4" transform="translate(162.45999999999998,0)"
                          style="font-family: 'Open Sans', verdana, arial, sans-serif; font-size: 12px; fill: rgb(36, 36, 36); fill-opacity: 1; white-space: pre;">
                        5k
                    </text>
                </g>
                <g class="xtick">
                    <text text-anchor="middle" x="0" y="367.4" transform="translate(268.93,0)"
                          style="font-family: 'Open Sans', verdana, arial, sans-serif; font-size: 12px; fill: rgb(36, 36, 36); fill-opacity: 1; white-space: pre;">
                        10k
                    </text>
                </g>
                <g class="xtick">
                    <text text-anchor="middle" x="0" y="367.4" transform="translate(375.39,0)"
                          style="font-family: 'Open Sans', verdana, arial, sans-serif; font-size: 12px; fill: rgb(36, 36, 36); fill-opacity: 1; white-space: pre;">
                        15k
                    </text>
                </g>
                <g class="xtick">
                    <text text-anchor="middle" x="0" y="367.4" transform="translate(481.86,0)"
                          style="font-family: 'Open Sans', verdana, arial, sans-serif; font-size: 12px; fill: rgb(36, 36, 36); fill-opacity: 1; white-space: pre;">
                        20k
                    </text>
                </g>
                <g class="xtick">
                    <text text-anchor="middle" x="0" y="367.4" transform="translate(588.32,0)"
                          style="font-family: 'Open Sans', verdana, arial, sans-serif; font-size: 12px; fill: rgb(36, 36, 36); fill-opacity: 1; white-space: pre;">
                        25k
                    </text>
                </g>
                <g class="xtick">
                    <text text-anchor="middle" x="0" y="367.4" transform="translate(694.79,0)"
                          style="font-family: 'Open Sans', verdana, arial, sans-serif; font-size: 12px; fill: rgb(36, 36, 36); fill-opacity: 1; white-space: pre;">
                        30k
                    </text>
                </g>
                <g class="xtick">
                    <text text-anchor="middle" x="0" y="367.4" transform="translate(801.25,0)"
                          style="font-family: 'Open Sans', verdana, arial, sans-serif; font-size: 12px; fill: rgb(36, 36, 36); fill-opacity: 1; white-space: pre;">
                        35k
                    </text>
                </g>
                <g class="xtick">
                    <text text-anchor="middle" x="0" y="367.4" transform="translate(907.72,0)"
                          style="font-family: 'Open Sans', verdana, arial, sans-serif; font-size: 12px; fill: rgb(36, 36, 36); fill-opacity: 1; white-space: pre;">
                        40k
                    </text>
                </g>
            </g>
            <g class="yaxislayer-above">
                <path class="ytick ticks crisp" d="M55,0h-5" transform="translate(0,296.18)"
                      style="stroke: rgb(68, 68, 68); stroke-opacity: 1; stroke-width: 1px;"/>
                <path class="ytick ticks crisp" d="M55,0h-5" transform="translate(0,231.74)"
                      style="stroke: rgb(68, 68, 68); stroke-opacity: 1; stroke-width: 1px;"/>
                <path class="ytick ticks crisp" d="M55,0h-5" transform="translate(0,167.29000000000002)"
                      style="stroke: rgb(68, 68, 68); stroke-opacity: 1; stroke-width: 1px;"/>
                <path class="ytick ticks crisp" d="M55,0h-5" transform="translate(0,102.85)"
                      style="stroke: rgb(68, 68, 68); stroke-opacity: 1; stroke-width: 1px;"/>
                <g class="ytick">
                    <text text-anchor="end" x="47.6" y="4.199999999999999" transform="translate(0,296.18)"
                          style="font-family: 'Open Sans', verdana, arial, sans-serif; font-size: 12px; fill: rgb(36, 36, 36); fill-opacity: 1; white-space: pre;">
                        2
                    </text>
                </g>
                <g class="ytick">
                    <text text-anchor="end" x="47.6" y="4.199999999999999" transform="translate(0,231.74)"
                          style="font-family: 'Open Sans', verdana, arial, sans-serif; font-size: 12px; fill: rgb(36, 36, 36); fill-opacity: 1; white-space: pre;">
                        0
                    </text>
                </g>
                <g class="ytick">
                    <text text-anchor="end" x="47.6" y="4.199999999999999" transform="translate(0,167.29000000000002)"
                          style="font-family: 'Open Sans', verdana, arial, sans-serif; font-size: 12px; fill: rgb(36, 36, 36); fill-opacity: 1; white-space: pre;">
                        2
                    </text>
                </g>
                <g class="ytick">
                    <text text-anchor="end" x="47.6" y="4.199999999999999" transform="translate(0,102.85)"
                          style="font-family: 'Open Sans', verdana, arial, sans-serif; font-size: 12px; fill: rgb(36, 36, 36); fill-opacity: 1; white-space: pre;">
                        4
                    </text>
                </g>
            </g>
            <g class="overaxes-above"/>
        </g>
    </g>
    <g class="polarlayer"/>
    <g class="ternarylayer"/>
    <g class="geolayer"/>
    <g class="funnelarealayer"/>
    <g class="pielayer"/>
    <g class="treemaplayer"/>
    <g class="sunburstlayer"/>
    <g class="glimages"/>
    <defs id="topdefs-afae3a">
        <g class="clips"/>
        <clipPath id="legendafae3a">
            <rect width="758" height="29" x="0" y="0"/>
        </clipPath>
    </defs>
    <g class="layer-above">
        <g class="imagelayer"/>
        <g class="shapelayer"/>
    </g>
    <g class="infolayer">
        <g class="legend" pointer-events="all" transform="translate(56, 64.29999999999998)">
            <rect class="bg" shape-rendering="crispEdges"
                  style="stroke: rgb(68, 68, 68); stroke-opacity: 1; fill: rgb(255, 255, 255); fill-opacity: 1; stroke-width: 0px;"
                  width="758" height="29" x="0" y="0"/>
            <g class="scrollbox" transform="translate(0, 0)" clip-path="url('#legendafae3a')">
                <g class="groups">
                    <g class="traces" transform="translate(0, 14.5)" style="opacity: 0.5;">
                        <text class="legendtext" text-anchor="start" x="40" y="4.680000000000001"
                              style="font-family: 'Open Sans', verdana, arial, sans-serif; font-size: 12px; fill: rgb(36, 36, 36); fill-opacity: 1; white-space: pre;">
                            Grid
                        </text>
                        <g class="layers" style="opacity: 1;">
                            <g class="legendfill"/>
                            <g class="legendlines">
                                <path class="js-line" d="M5,0h30"
                                      style="fill: none; stroke: rgb(192, 192, 192); stroke-opacity: 1; stroke-width: 1px;"/>
                            </g>
                            <g class="legendsymbols">
                                <g class="legendpoints"/>
                            </g>
                        </g>
                        <rect class="legendtoggle" x="0" y="-9.5" width="67.703125" height="19"
                              style="fill: rgb(0, 0, 0); fill-opacity: 0;"/>
                    </g>
                    <g class="traces" transform="translate(70.203125, 14.5)" style="opacity: 1;">
                        <text class="legendtext" text-anchor="start" x="40" y="4.680000000000001"
                              style="font-family: 'Open Sans', verdana, arial, sans-serif; font-size: 12px; fill: rgb(36, 36, 36); fill-opacity: 1; white-space: pre;">
                            Signal (<tspan style="font-weight:bold">w = e</tspan>  <tspan style="font-weight:bold">
                            c</tspan>)
                        </text>
                        <g class="layers" style="opacity: 1;">
                            <g class="legendfill"/>
                            <g class="legendlines">
                                <path class="js-line" d="M5,0h30"
                                      style="fill: none; stroke: rgb(132, 180, 196); stroke-opacity: 1; stroke-width: 1px;"/>
                            </g>
                            <g class="legendsymbols">
                                <g class="legendpoints"/>
                            </g>
                        </g>
                        <rect class="legendtoggle" x="0" y="-9.5" width="160.515625" height="19"
                              style="fill: rgb(0, 0, 0); fill-opacity: 0;"/>
                    </g>
                    <g class="traces" transform="translate(233.21875, 14.5)" style="opacity: 1;">
                        <text class="legendtext" text-anchor="start" x="40" y="4.680000000000001"
                              style="font-family: 'Open Sans', verdana, arial, sans-serif; font-size: 12px; fill: rgb(36, 36, 36); fill-opacity: 1; white-space: pre;">
                            Carrier (<tspan style="font-weight:bold">c</tspan>)
                        </text>
                        <g class="layers" style="opacity: 1;">
                            <g class="legendfill"/>
                            <g class="legendlines">
                                <path class="js-line" d="M5,0h30"
                                      style="fill: none; stroke: rgb(0, 0, 0); stroke-opacity: 0.6; stroke-width: 1px;"/>
                            </g>
                            <g class="legendsymbols">
                                <g class="legendpoints"/>
                            </g>
                        </g>
                        <rect class="legendtoggle" x="0" y="-9.5" width="106.078125" height="19"
                              style="fill: rgb(0, 0, 0); fill-opacity: 0;"/>
                    </g>
                    <g class="traces" transform="translate(341.796875, 14.5)" style="opacity: 1;">
                        <text class="legendtext" text-anchor="start" x="40" y="4.680000000000001"
                              style="font-family: 'Open Sans', verdana, arial, sans-serif; font-size: 12px; fill: rgb(36, 36, 36); fill-opacity: 1; white-space: pre;">
                            Envelope (<tspan style="font-weight:bold">e</tspan>)
                        </text>
                        <g class="layers" style="opacity: 1;">
                            <g class="legendfill"/>
                            <g class="legendlines">
                                <path class="js-line" d="M5,0h30"
                                      style="fill: none; stroke: rgb(0, 0, 255); stroke-opacity: 1; stroke-width: 2px;"/>
                            </g>
                            <g class="legendsymbols">
                                <g class="legendpoints"/>
                            </g>
                        </g>
                        <rect class="legendtoggle" x="0" y="-9.5" width="120" height="19"
                              style="fill: rgb(0, 0, 0); fill-opacity: 0;"/>
                    </g>
                    <g class="traces" transform="translate(464.296875, 14.5)" style="opacity: 0.5;">
                        <text class="legendtext" text-anchor="start" x="40" y="4.680000000000001"
                              style="font-family: 'Open Sans', verdana, arial, sans-serif; font-size: 12px; fill: rgb(36, 36, 36); fill-opacity: 1; white-space: pre;">
                            Positive Frontier
                        </text>
                        <g class="layers" style="opacity: 1;">
                            <g class="legendfill"/>
                            <g class="legendlines">
                                <path class="js-line" d="M5,0h30"
                                      style="fill: none; stroke: rgb(255, 0, 0); stroke-opacity: 1; stroke-width: 2px;"/>
                            </g>
                            <g class="legendsymbols">
                                <g class="legendpoints"/>
                            </g>
                        </g>
                        <rect class="legendtoggle" x="0" y="-9.5" width="140.734375" height="19"
                              style="fill: rgb(0, 0, 0); fill-opacity: 0;"/>
                    </g>
                    <g class="traces" transform="translate(607.53125, 14.5)" style="opacity: 0.5;">
                        <text class="legendtext" text-anchor="start" x="40" y="4.680000000000001"
                              style="font-family: 'Open Sans', verdana, arial, sans-serif; font-size: 12px; fill: rgb(36, 36, 36); fill-opacity: 1; white-space: pre;">
                            Negative Frontier
                        </text>
                        <g class="layers" style="opacity: 1;">
                            <g class="legendfill"/>
                            <g class="legendlines">
                                <path class="js-line" d="M5,0h30"
                                      style="fill: none; stroke: rgb(255, 0, 0); stroke-opacity: 1; stroke-width: 2px;"/>
                            </g>
                            <g class="legendsymbols">
                                <g class="legendpoints"/>
                            </g>
                        </g>
                        <rect class="legendtoggle" x="0" y="-9.5" width="147.765625" height="19"
                              style="fill: rgb(0, 0, 0); fill-opacity: 0;"/>
                    </g>
                </g>
            </g>
            <rect class="scrollbar" rx="20" ry="3" width="0" height="0"
                  style="fill: rgb(128, 139, 164); fill-opacity: 1;" x="0" y="0"/>
        </g>
        <g class="g-gtitle">
            <text class="gtitle" x="500" y="12" text-anchor="middle" dy="0.7em"
                  style="font-family: 'Open Sans', verdana, arial, sans-serif; font-size: 17px; fill: rgb(36, 36, 36); opacity: 1; font-weight: normal; white-space: pre;">
                <tspan style="font-weight:bold">tom</tspan>
            </text>
        </g>
        <g class="g-xtitle">
            <text class="xtitle" x="525.5" y="395.20625" text-anchor="middle"
                  style="font-family: 'Open Sans', verdana, arial, sans-serif; font-size: 14px; fill: rgb(36, 36, 36); opacity: 1; font-weight: normal; white-space: pre;">
                <tspan style="font-weight:bold">
                    <tspan style="font-style:italic">i</tspan>
                </tspan>
            </text>
        </g>
        <g class="g-ytitle" transform="translate(8.6591796875,0)">
            <text class="ytitle" transform="rotate(-90,5.340625000000003,218.5)" x="5.340625000000003" y="218.5"
                  text-anchor="middle"
                  style="font-family: 'Open Sans', verdana, arial, sans-serif; font-size: 14px; fill: rgb(36, 36, 36); opacity: 1; font-weight: normal; white-space: pre;">
                <tspan style="font-weight:bold">Amplitude</tspan>
            </text>
        </g>
    </g>
</svg>